<svg width="155" height="11" viewBox="0 0 155 11" fill="none" xmlns="http://www.w3.org/2000/svg">
<rect x="153.556" y="9.17798" width="152.556" height="8.17798" rx="4.08899" transform="rotate(-180 153.556 9.17798)" fill="url(#paint0_linear_79_151)" stroke="black" stroke-width="2"/>
<path d="M130.245 5.06942L121.846 8.93241C121.269 9.19816 121.269 9.62993 121.846 9.89488C122.126 10.0236 122.497 10.0939 122.892 10.0939C123.288 10.0939 123.66 10.023 123.94 9.89488L133.384 5.55103C133.961 5.28528 133.961 4.85381 133.384 4.58872L124.206 0.367137C123.925 0.239047 123.554 0.168241 123.159 0.168241C122.763 0.168241 122.391 0.239503 122.112 0.367137C121.534 0.632989 121.534 1.06477 122.112 1.32955L130.245 5.06942ZM122.951 0.752266C123.009 0.725422 123.085 0.71266 123.161 0.71266C123.237 0.71266 123.312 0.725979 123.37 0.752266L132.547 4.97364C132.662 5.02682 132.662 5.11338 132.547 5.16616L123.101 9.51076C122.986 9.56394 122.797 9.56394 122.682 9.51076C122.567 9.45798 122.567 9.37148 122.682 9.3183L131.919 5.06942L122.951 0.944628C122.835 0.891548 122.835 0.805142 122.951 0.752266Z" fill="black"/>
<path d="M122.951 0.752266C123.009 0.725422 123.085 0.71266 123.161 0.71266C123.237 0.71266 123.312 0.725979 123.37 0.752266L132.547 4.97364C132.662 5.02682 132.662 5.11338 132.547 5.16616L123.101 9.51076C122.986 9.56394 122.797 9.56394 122.682 9.51076C122.567 9.45798 122.567 9.37148 122.682 9.3183L131.919 5.06942L122.951 0.944628C122.835 0.891548 122.835 0.805142 122.951 0.752266Z" fill="black"/>
<path d="M142.477 5.06942L134.077 8.93241C133.5 9.19816 133.5 9.62993 134.077 9.89488C134.357 10.0236 134.728 10.0939 135.124 10.0939C135.519 10.0939 135.891 10.023 136.17 9.89488L145.616 5.55108C146.193 5.28533 146.193 4.85386 145.616 4.58877L136.437 0.367187C136.158 0.239097 135.786 0.168291 135.391 0.168291C134.995 0.168291 134.624 0.239553 134.344 0.367187C133.767 0.633039 133.767 1.06482 134.344 1.3296L142.477 5.06942ZM135.182 0.752265C135.24 0.725421 135.315 0.712658 135.391 0.712658C135.467 0.712658 135.543 0.725978 135.601 0.752265L144.779 4.97364C144.894 5.02682 144.894 5.11338 144.779 5.16616L135.333 9.51076C135.217 9.56394 135.029 9.56394 134.914 9.51076C134.798 9.45798 134.798 9.37148 134.914 9.3183L144.151 5.06947L135.182 0.944678C135.066 0.891548 135.066 0.805141 135.182 0.752265Z" fill="black"/>
<path d="M135.182 0.752265C135.24 0.725421 135.315 0.712658 135.391 0.712658C135.467 0.712658 135.543 0.725978 135.601 0.752265L144.779 4.97364C144.894 5.02682 144.894 5.11338 144.779 5.16616L135.333 9.51076C135.217 9.56394 135.029 9.56394 134.914 9.51076C134.798 9.45798 134.798 9.37148 134.914 9.3183L144.151 5.06947L135.182 0.944678C135.066 0.891548 135.066 0.805141 135.182 0.752265Z" fill="black"/>
<path d="M16.8094 5.06942L8.41013 8.93241C7.83273 9.19816 7.83273 9.62993 8.41013 9.89488C8.69007 10.0236 9.06119 10.0939 9.45654 10.0939C9.85201 10.0939 10.2245 10.023 10.5042 9.89488L19.9481 5.55103C20.5254 5.28528 20.5254 4.85381 19.9481 4.58872L10.7701 0.367137C10.4895 0.239047 10.1186 0.168241 9.72305 0.168241C9.32759 0.168241 8.95481 0.239503 8.67608 0.367137C8.09803 0.632989 8.09803 1.06477 8.67608 1.32955L16.8094 5.06942ZM9.51557 0.752266C9.5735 0.725422 9.6497 0.71266 9.72481 0.71266C9.80113 0.71266 9.87634 0.725979 9.93416 0.752266L19.1111 4.97364C19.2265 5.02682 19.2265 5.11338 19.1111 5.16616L9.66479 9.51076C9.55037 9.56394 9.36128 9.56394 9.24609 9.51076C9.13167 9.45798 9.13167 9.37148 9.24609 9.3183L18.4837 5.06942L9.51557 0.944628C9.39884 0.891548 9.39884 0.805142 9.51557 0.752266Z" fill="black"/>
<path d="M9.51557 0.752266C9.5735 0.725422 9.6497 0.71266 9.72481 0.71266C9.80113 0.71266 9.87634 0.725979 9.93416 0.752266L19.1111 4.97364C19.2265 5.02682 19.2265 5.11338 19.1111 5.16616L9.66479 9.51076C9.55037 9.56394 9.36128 9.56394 9.24609 9.51076C9.13167 9.45798 9.13167 9.37148 9.24609 9.3183L18.4837 5.06942L9.51557 0.944628C9.39884 0.891548 9.39884 0.805142 9.51557 0.752266Z" fill="black"/>
<path d="M29.0408 5.06942L20.6414 8.93241C20.0642 9.19816 20.0642 9.62993 20.6414 9.89488C20.9209 10.0236 21.2927 10.0939 21.688 10.0939C22.0834 10.0939 22.4552 10.023 22.7345 9.89488L32.1802 5.55108C32.757 5.28533 32.757 4.85386 32.1802 4.58877L23.0014 0.367187C22.7221 0.239097 22.3504 0.168291 21.9548 0.168291C21.5594 0.168291 21.1877 0.239553 20.9084 0.367187C20.3311 0.633039 20.3311 1.06482 20.9084 1.3296L29.0408 5.06942ZM21.746 0.752265C21.8039 0.725421 21.8796 0.712658 21.9556 0.712658C22.0313 0.712658 22.107 0.725978 22.1651 0.752265L31.343 4.97364C31.4583 5.02682 31.4583 5.11338 31.343 5.16616L21.8968 9.51076C21.7812 9.56394 21.5936 9.56394 21.4782 9.51076C21.3627 9.45798 21.3627 9.37148 21.4782 9.3183L30.7148 5.06947L21.7459 0.944678C21.63 0.891548 21.63 0.805141 21.746 0.752265Z" fill="black"/>
<path d="M21.746 0.752265C21.8039 0.725421 21.8796 0.712658 21.9556 0.712658C22.0313 0.712658 22.107 0.725978 22.1651 0.752265L31.343 4.97364C31.4583 5.02682 31.4583 5.11338 31.343 5.16616L21.8968 9.51076C21.7812 9.56394 21.5936 9.56394 21.4782 9.51076C21.3627 9.45798 21.3627 9.37148 21.4782 9.3183L30.7148 5.06947L21.7459 0.944678C21.63 0.891548 21.63 0.805141 21.746 0.752265Z" fill="black"/>
<defs>
<linearGradient id="paint0_linear_79_151" x1="154.556" y1="20.3559" x2="309.113" y2="20.356" gradientUnits="userSpaceOnUse">
<stop offset="0.28125" stop-color="#FF0101"/>
<stop offset="0.401042" stop-color="#FAFF01"/>
<stop offset="0.526042" stop-color="#1AFF18"/>
<stop offset="0.645833" stop-color="#FAFF01"/>
<stop offset="0.770833" stop-color="#FF0101"/>
</linearGradient>
</defs>
</svg>
