<svg width="100" height="7" viewBox="0 0 100 7" fill="none" xmlns="http://www.w3.org/2000/svg">
<rect x="99" y="5.58527" width="98" height="4.58529" rx="2.29264" transform="rotate(-180 99 5.58527)" fill="url(#paint0_linear_252_133)" stroke="black" stroke-width="2"/>
<path d="M84.6138 3.22555L79.1793 5.72496C78.8057 5.8969 78.8057 6.17627 79.1793 6.34769C79.3604 6.43096 79.6005 6.47644 79.8563 6.47644C80.1122 6.47644 80.3532 6.4306 80.5342 6.34769L86.6446 3.53716C87.0181 3.36522 87.0181 3.08605 86.6446 2.91453L80.7062 0.183111C80.5247 0.100235 80.2847 0.0544225 80.0288 0.0544225C79.7729 0.0544225 79.5317 0.10053 79.3514 0.183111C78.9774 0.355121 78.9774 0.634486 79.3514 0.805808L84.6138 3.22555ZM79.8945 0.432294C79.932 0.414926 79.9813 0.406669 80.0299 0.406669C80.0793 0.406669 80.128 0.415287 80.1654 0.432294L86.103 3.16358C86.1776 3.19799 86.1776 3.254 86.103 3.28814L79.9911 6.09916C79.9171 6.13357 79.7947 6.13357 79.7202 6.09916C79.6461 6.06501 79.6461 6.00904 79.7202 5.97463L85.697 3.22555L79.8945 0.556755C79.819 0.522412 79.819 0.466506 79.8945 0.432294Z" fill="black"/>
<path d="M79.8945 0.432294C79.932 0.414926 79.9813 0.406669 80.0299 0.406669C80.0793 0.406669 80.128 0.415287 80.1654 0.432294L86.103 3.16358C86.1776 3.19799 86.1776 3.254 86.103 3.28814L79.9911 6.09916C79.9171 6.13357 79.7947 6.13357 79.7202 6.09916C79.6461 6.06501 79.6461 6.00904 79.7202 5.97463L85.697 3.22555L79.8945 0.556755C79.819 0.522412 79.819 0.466506 79.8945 0.432294Z" fill="black"/>
<path d="M92.5276 3.22555L87.0931 5.72496C86.7196 5.8969 86.7196 6.17627 87.0931 6.34769C87.2739 6.43096 87.5145 6.47644 87.7703 6.47644C88.0261 6.47644 88.2666 6.4306 88.4474 6.34769L94.5588 3.53719C94.9321 3.36525 94.9321 3.08608 94.5588 2.91456L88.62 0.183144C88.4393 0.100268 88.1989 0.0544556 87.9429 0.0544556C87.687 0.0544556 87.4466 0.100563 87.2659 0.183144C86.8924 0.355154 86.8924 0.634519 87.2659 0.805841L92.5276 3.22555ZM87.8078 0.432294C87.8452 0.414926 87.8942 0.406669 87.9434 0.406669C87.9924 0.406669 88.0414 0.415287 88.0789 0.432294L94.0172 3.16358C94.0918 3.19799 94.0918 3.254 94.0172 3.28814L87.9054 6.09916C87.8305 6.13357 87.7092 6.13357 87.6345 6.09916C87.5598 6.06501 87.5598 6.00904 87.6345 5.97463L93.6107 3.22558L87.8077 0.556788C87.7327 0.522412 87.7327 0.466506 87.8078 0.432294Z" fill="black"/>
<path d="M87.8078 0.432294C87.8452 0.414926 87.8942 0.406669 87.9434 0.406669C87.9924 0.406669 88.0414 0.415287 88.0789 0.432294L94.0172 3.16358C94.0918 3.19799 94.0918 3.254 94.0172 3.28814L87.9054 6.09916C87.8305 6.13357 87.7092 6.13357 87.6345 6.09916C87.5598 6.06501 87.5598 6.00904 87.6345 5.97463L93.6107 3.22558L87.8077 0.556788C87.7327 0.522412 87.7327 0.466506 87.8078 0.432294Z" fill="black"/>
<path d="M11.2193 3.22555L5.7848 5.72496C5.41122 5.8969 5.41122 6.17627 5.7848 6.34769C5.96592 6.43096 6.20604 6.47644 6.46184 6.47644C6.71771 6.47644 6.95869 6.4306 7.13967 6.34769L13.2501 3.53716C13.6236 3.36522 13.6236 3.08605 13.2501 2.91453L7.31175 0.183111C7.1302 0.100235 6.89022 0.0544225 6.63428 0.0544225C6.37841 0.0544225 6.13721 0.10053 5.95687 0.183111C5.58286 0.355121 5.58286 0.634486 5.95687 0.805808L11.2193 3.22555ZM6.50003 0.432294C6.53751 0.414926 6.58682 0.406669 6.63541 0.406669C6.68479 0.406669 6.73346 0.415287 6.77087 0.432294L12.7085 3.16358C12.7831 3.19799 12.7831 3.254 12.7085 3.28814L6.59658 6.09916C6.52255 6.13357 6.40021 6.13357 6.32568 6.09916C6.25165 6.06501 6.25165 6.00904 6.32568 5.97463L12.3025 3.22555L6.50003 0.556755C6.42451 0.522412 6.42451 0.466506 6.50003 0.432294Z" fill="black"/>
<path d="M6.50003 0.432294C6.53751 0.414926 6.58682 0.406669 6.63541 0.406669C6.68479 0.406669 6.73346 0.415287 6.77087 0.432294L12.7085 3.16358C12.7831 3.19799 12.7831 3.254 12.7085 3.28814L6.59658 6.09916C6.52255 6.13357 6.40021 6.13357 6.32568 6.09916C6.25165 6.06501 6.25165 6.00904 6.32568 5.97463L12.3025 3.22555L6.50003 0.556755C6.42451 0.522412 6.42451 0.466506 6.50003 0.432294Z" fill="black"/>
<path d="M19.1331 3.22555L13.6986 5.72496C13.3252 5.8969 13.3252 6.17627 13.6986 6.34769C13.8794 6.43096 14.12 6.47644 14.3758 6.47644C14.6316 6.47644 14.8721 6.4306 15.0529 6.34769L21.1643 3.53719C21.5376 3.36525 21.5376 3.08608 21.1643 2.91456L15.2255 0.183144C15.0448 0.100268 14.8044 0.0544556 14.5484 0.0544556C14.2926 0.0544556 14.0521 0.100563 13.8714 0.183144C13.4979 0.355154 13.4979 0.634519 13.8714 0.805841L19.1331 3.22555ZM14.4133 0.432294C14.4507 0.414926 14.4998 0.406669 14.5489 0.406669C14.5979 0.406669 14.6469 0.415287 14.6844 0.432294L20.6227 3.16358C20.6973 3.19799 20.6973 3.254 20.6227 3.28814L14.5109 6.09916C14.4361 6.13357 14.3147 6.13357 14.24 6.09916C14.1653 6.06501 14.1653 6.00904 14.24 5.97463L20.2162 3.22558L14.4133 0.556788C14.3382 0.522412 14.3382 0.466506 14.4133 0.432294Z" fill="black"/>
<path d="M14.4133 0.432294C14.4507 0.414926 14.4998 0.406669 14.5489 0.406669C14.5979 0.406669 14.6469 0.415287 14.6844 0.432294L20.6227 3.16358C20.6973 3.19799 20.6973 3.254 20.6227 3.28814L14.5109 6.09916C14.4361 6.13357 14.3147 6.13357 14.24 6.09916C14.1653 6.06501 14.1653 6.00904 14.24 5.97463L20.2162 3.22558L14.4133 0.556788C14.3382 0.522412 14.3382 0.466506 14.4133 0.432294Z" fill="black"/>
<defs>
<linearGradient id="paint0_linear_252_133" x1="100" y1="13.1705" x2="200" y2="13.1706" gradientUnits="userSpaceOnUse">
<stop offset="0.278127" stop-color="#FF0101"/>
<stop offset="0.389745" stop-color="#FAFF01"/>
<stop offset="0.50136" stop-color="#1AFF18"/>
<stop offset="0.60481" stop-color="#FAFF01"/>
<stop offset="0.724594" stop-color="#FF0101"/>
</linearGradient>
</defs>
</svg>
