<svg width="100" height="7" viewBox="0 0 100 7" fill="none" xmlns="http://www.w3.org/2000/svg">
<rect x="99" y="5.58527" width="98" height="4.58529" rx="2.29264" transform="rotate(-180 99 5.58527)" fill="url(#paint0_linear_252_133)" stroke="black" stroke-width="2"/>
<path d="M15.7296 3.30533L21.1641 0.805927C21.5376 0.633982 21.5376 0.354617 21.1641 0.183197C20.9829 0.0999282 20.7428 0.0544434 20.487 0.0544434C20.2311 0.0544434 19.9902 0.100289 19.8092 0.183197L13.6988 2.99372C13.3253 3.16567 13.3253 3.44484 13.6988 3.61635L19.6371 6.34777C19.8187 6.43065 20.0586 6.47646 20.3146 6.47646C20.5704 6.47646 20.8116 6.43035 20.992 6.34777C21.366 6.17576 21.366 5.8964 20.992 5.72508L15.7296 3.30533ZM20.4488 6.09859C20.4113 6.11596 20.362 6.12422 20.3134 6.12422C20.2641 6.12422 20.2154 6.1156 20.178 6.09859L14.2404 3.3673C14.1657 3.33289 14.1657 3.27689 14.2404 3.24274L20.3523 0.431725C20.4263 0.397317 20.5486 0.397317 20.6232 0.431725C20.6972 0.465872 20.6972 0.521843 20.6232 0.556251L14.6463 3.30533L20.4488 5.97413C20.5243 6.00847 20.5243 6.06438 20.4488 6.09859Z" fill="black"/>
<path d="M20.4488 6.09859C20.4113 6.11596 20.362 6.12422 20.3134 6.12422C20.2641 6.12422 20.2154 6.1156 20.178 6.09859L14.2404 3.3673C14.1657 3.33289 14.1657 3.27689 14.2404 3.24274L20.3523 0.431725C20.4263 0.397317 20.5486 0.397317 20.6232 0.431725C20.6972 0.465872 20.6972 0.521843 20.6232 0.556251L14.6463 3.30533L20.4488 5.97413C20.5243 6.00847 20.5243 6.06438 20.4488 6.09859Z" fill="black"/>
<path d="M7.81574 3.30533L13.2503 0.805927C13.6237 0.633982 13.6237 0.354617 13.2503 0.183197C13.0694 0.0999282 12.8289 0.0544434 12.5731 0.0544434C12.3173 0.0544434 12.0767 0.100289 11.896 0.183197L5.78453 2.99369C5.4113 3.16563 5.4113 3.4448 5.78453 3.61632L11.7233 6.34774C11.904 6.43062 12.1445 6.47643 12.4004 6.47643C12.6563 6.47643 12.8968 6.43032 13.0775 6.34774C13.451 6.17573 13.451 5.89636 13.0775 5.72504L7.81574 3.30533ZM12.5355 6.09859C12.4981 6.11596 12.4491 6.12422 12.3999 6.12422C12.351 6.12422 12.302 6.1156 12.2644 6.09859L6.32619 3.3673C6.25159 3.33289 6.25159 3.27689 6.32619 3.24274L12.438 0.431725C12.5128 0.397317 12.6342 0.397317 12.7088 0.431725C12.7836 0.465872 12.7836 0.521843 12.7088 0.556251L6.73262 3.3053L12.5356 5.9741C12.6106 6.00847 12.6106 6.06438 12.5355 6.09859Z" fill="black"/>
<path d="M12.5355 6.09859C12.4981 6.11596 12.4491 6.12422 12.3999 6.12422C12.351 6.12422 12.302 6.1156 12.2644 6.09859L6.32619 3.3673C6.25159 3.33289 6.25159 3.27689 6.32619 3.24274L12.438 0.431725C12.5128 0.397317 12.6342 0.397317 12.7088 0.431725C12.7836 0.465872 12.7836 0.521843 12.7088 0.556251L6.73262 3.3053L12.5356 5.9741C12.6106 6.00847 12.6106 6.06438 12.5355 6.09859Z" fill="black"/>
<path d="M89.1241 3.30533L94.5586 0.805927C94.9321 0.633982 94.9321 0.354617 94.5586 0.183197C94.3774 0.0999282 94.1373 0.0544434 93.8815 0.0544434C93.6256 0.0544434 93.3847 0.100289 93.2037 0.183197L87.0933 2.99372C86.7198 3.16567 86.7198 3.44484 87.0933 3.61635L93.0316 6.34777C93.2132 6.43065 93.4531 6.47646 93.7091 6.47646C93.9649 6.47646 94.2061 6.43035 94.3865 6.34777C94.7605 6.17576 94.7605 5.8964 94.3865 5.72508L89.1241 3.30533ZM93.8433 6.09859C93.8058 6.11596 93.7565 6.12422 93.7079 6.12422C93.6586 6.12422 93.6099 6.1156 93.5725 6.09859L87.6349 3.3673C87.5602 3.33289 87.5602 3.27689 87.6349 3.24274L93.7468 0.431725C93.8208 0.397317 93.9431 0.397317 94.0177 0.431725C94.0917 0.465872 94.0917 0.521843 94.0177 0.556251L88.0408 3.30533L93.8433 5.97413C93.9188 6.00847 93.9188 6.06438 93.8433 6.09859Z" fill="black"/>
<path d="M93.8433 6.09859C93.8058 6.11596 93.7565 6.12422 93.7079 6.12422C93.6586 6.12422 93.6099 6.1156 93.5725 6.09859L87.6349 3.3673C87.5602 3.33289 87.5602 3.27689 87.6349 3.24274L93.7468 0.431725C93.8208 0.397317 93.9431 0.397317 94.0177 0.431725C94.0917 0.465872 94.0917 0.521843 94.0177 0.556251L88.0408 3.30533L93.8433 5.97413C93.9188 6.00847 93.9188 6.06438 93.8433 6.09859Z" fill="black"/>
<path d="M81.2102 3.30533L86.6448 0.805927C87.0182 0.633982 87.0182 0.354617 86.6448 0.183197C86.4639 0.0999282 86.2234 0.0544434 85.9676 0.0544434C85.7118 0.0544434 85.4712 0.100289 85.2905 0.183197L79.179 2.99369C78.8058 3.16563 78.8058 3.4448 79.179 3.61632L85.1178 6.34774C85.2985 6.43062 85.539 6.47643 85.7949 6.47643C86.0508 6.47643 86.2913 6.43032 86.472 6.34774C86.8455 6.17573 86.8455 5.89636 86.472 5.72504L81.2102 3.30533ZM85.93 6.09859C85.8926 6.11596 85.8436 6.12422 85.7944 6.12422C85.7455 6.12422 85.6965 6.1156 85.6589 6.09859L79.7207 3.3673C79.6461 3.33289 79.6461 3.27689 79.7207 3.24274L85.8325 0.431725C85.9073 0.397317 86.0287 0.397317 86.1033 0.431725C86.1781 0.465872 86.1781 0.521843 86.1033 0.556251L80.1271 3.3053L85.9301 5.9741C86.0051 6.00847 86.0051 6.06438 85.93 6.09859Z" fill="black"/>
<path d="M85.93 6.09859C85.8926 6.11596 85.8436 6.12422 85.7944 6.12422C85.7455 6.12422 85.6965 6.1156 85.6589 6.09859L79.7207 3.3673C79.6461 3.33289 79.6461 3.27689 79.7207 3.24274L85.8325 0.431725C85.9073 0.397317 86.0287 0.397317 86.1033 0.431725C86.1781 0.465872 86.1781 0.521843 86.1033 0.556251L80.1271 3.3053L85.9301 5.9741C86.0051 6.00847 86.0051 6.06438 85.93 6.09859Z" fill="black"/>
<defs>
<linearGradient id="paint0_linear_252_133" x1="100" y1="13.1705" x2="200" y2="13.1706" gradientUnits="userSpaceOnUse">
<stop offset="0.278127" stop-color="#FF0101"/>
<stop offset="0.389745" stop-color="#FAFF01"/>
<stop offset="0.50136" stop-color="#1AFF18"/>
<stop offset="0.60481" stop-color="#FAFF01"/>
<stop offset="0.724594" stop-color="#FF0101"/>
</linearGradient>
</defs>
</svg>
