<svg width="155" height="11" viewBox="0 0 155 11" fill="none" xmlns="http://www.w3.org/2000/svg">
<rect x="1" y="1" width="152.556" height="8.17798" rx="4.08899" fill="url(#paint0_linear_79_151)" stroke="black" stroke-width="2"/>
<path d="M24.311 5.10856L32.7104 1.24557C33.2877 0.97982 33.2877 0.548044 32.7104 0.283103C32.4304 0.154406 32.0593 0.0841064 31.6639 0.0841064C31.2685 0.0841064 30.896 0.154963 30.6163 0.283103L21.1723 4.62695C20.5951 4.8927 20.5951 5.32417 21.1723 5.58926L30.3504 9.81084C30.631 9.93893 31.0019 10.0097 31.3974 10.0097C31.7929 10.0097 32.1657 9.93848 32.4444 9.81084C33.0225 9.54499 33.0225 9.11321 32.4444 8.84842L24.311 5.10856ZM31.6049 9.42571C31.547 9.45256 31.4708 9.46532 31.3957 9.46532C31.3194 9.46532 31.2441 9.452 31.1863 9.42571L22.0094 5.20434C21.894 5.15116 21.894 5.0646 22.0094 5.01182L31.4557 0.667219C31.5701 0.614039 31.7592 0.614039 31.8744 0.667219C31.9888 0.719995 31.9888 0.806502 31.8744 0.859682L22.6368 5.10856L31.6049 9.23335C31.7216 9.28643 31.7216 9.37284 31.6049 9.42571Z" fill="black"/>
<path d="M31.6049 9.42571C31.547 9.45256 31.4708 9.46532 31.3957 9.46532C31.3194 9.46532 31.2441 9.452 31.1863 9.42571L22.0094 5.20434C21.894 5.15116 21.894 5.0646 22.0094 5.01182L31.4557 0.667219C31.5701 0.614039 31.7592 0.614039 31.8744 0.667219C31.9888 0.719995 31.9888 0.806502 31.8744 0.859682L22.6368 5.10856L31.6049 9.23335C31.7216 9.28643 31.7216 9.37284 31.6049 9.42571Z" fill="black"/>
<path d="M12.0797 5.10856L20.4791 1.24557C21.0563 0.97982 21.0563 0.548044 20.4791 0.283103C20.1996 0.154406 19.8278 0.0841064 19.4325 0.0841064C19.0371 0.0841064 18.6653 0.154963 18.3859 0.283103L8.94032 4.6269C8.36348 4.89265 8.36348 5.32412 8.94032 5.58921L18.1191 9.81079C18.3984 9.93888 18.7701 10.0097 19.1656 10.0097C19.5611 10.0097 19.9328 9.93843 20.2121 9.81079C20.7893 9.54494 20.7893 9.11316 20.2121 8.84837L12.0797 5.10856ZM19.3744 9.42571C19.3166 9.45256 19.2409 9.46532 19.1649 9.46532C19.0892 9.46532 19.0134 9.452 18.9554 9.42571L9.7775 5.20434C9.6622 5.15116 9.6622 5.0646 9.7775 5.01182L19.2237 0.667219C19.3393 0.614039 19.5269 0.614039 19.6423 0.667219C19.7578 0.719995 19.7578 0.806502 19.6423 0.859682L10.4057 5.10851L19.3745 9.2333C19.4905 9.28643 19.4905 9.37284 19.3744 9.42571Z" fill="black"/>
<path d="M19.3744 9.42571C19.3166 9.45256 19.2409 9.46532 19.1649 9.46532C19.0892 9.46532 19.0134 9.452 18.9554 9.42571L9.7775 5.20434C9.6622 5.15116 9.6622 5.0646 9.7775 5.01182L19.2237 0.667219C19.3393 0.614039 19.5269 0.614039 19.6423 0.667219C19.7578 0.719995 19.7578 0.806502 19.6423 0.859682L10.4057 5.10851L19.3745 9.2333C19.4905 9.28643 19.4905 9.37284 19.3744 9.42571Z" fill="black"/>
<path d="M137.747 5.10856L146.146 1.24557C146.724 0.97982 146.724 0.548044 146.146 0.283103C145.866 0.154406 145.495 0.0841064 145.1 0.0841064C144.704 0.0841064 144.332 0.154963 144.052 0.283103L134.608 4.62695C134.031 4.8927 134.031 5.32417 134.608 5.58926L143.786 9.81084C144.067 9.93893 144.438 10.0097 144.833 10.0097C145.229 10.0097 145.601 9.93848 145.88 9.81084C146.458 9.54499 146.458 9.11321 145.88 8.84842L137.747 5.10856ZM145.041 9.42571C144.983 9.45256 144.907 9.46532 144.831 9.46532C144.755 9.46532 144.68 9.452 144.622 9.42571L135.445 5.20434C135.33 5.15116 135.33 5.0646 135.445 5.01182L144.891 0.667219C145.006 0.614039 145.195 0.614039 145.31 0.667219C145.425 0.719995 145.425 0.806502 145.31 0.859682L136.073 5.10856L145.041 9.23335C145.157 9.28643 145.157 9.37284 145.041 9.42571Z" fill="black"/>
<path d="M145.041 9.42571C144.983 9.45256 144.907 9.46532 144.831 9.46532C144.755 9.46532 144.68 9.452 144.622 9.42571L135.445 5.20434C135.33 5.15116 135.33 5.0646 135.445 5.01182L144.891 0.667219C145.006 0.614039 145.195 0.614039 145.31 0.667219C145.425 0.719995 145.425 0.806502 145.31 0.859682L136.073 5.10856L145.041 9.23335C145.157 9.28643 145.157 9.37284 145.041 9.42571Z" fill="black"/>
<path d="M125.515 5.10856L133.915 1.24557C134.492 0.97982 134.492 0.548044 133.915 0.283103C133.635 0.154406 133.264 0.0841064 132.868 0.0841064C132.473 0.0841064 132.101 0.154963 131.822 0.283103L122.376 4.6269C121.799 4.89265 121.799 5.32412 122.376 5.58921L131.555 9.81079C131.834 9.93888 132.206 10.0097 132.601 10.0097C132.997 10.0097 133.369 9.93843 133.648 9.81079C134.225 9.54494 134.225 9.11316 133.648 8.84837L125.515 5.10856ZM132.81 9.42571C132.752 9.45256 132.677 9.46532 132.601 9.46532C132.525 9.46532 132.449 9.452 132.391 9.42571L123.213 5.20434C123.098 5.15116 123.098 5.0646 123.213 5.01182L132.659 0.667219C132.775 0.614039 132.963 0.614039 133.078 0.667219C133.194 0.719995 133.194 0.806502 133.078 0.859682L123.841 5.10851L132.81 9.2333C132.926 9.28643 132.926 9.37284 132.81 9.42571Z" fill="black"/>
<path d="M132.81 9.42571C132.752 9.45256 132.677 9.46532 132.601 9.46532C132.525 9.46532 132.449 9.452 132.391 9.42571L123.213 5.20434C123.098 5.15116 123.098 5.0646 123.213 5.01182L132.659 0.667219C132.775 0.614039 132.963 0.614039 133.078 0.667219C133.194 0.719995 133.194 0.806502 133.078 0.859682L123.841 5.10851L132.81 9.2333C132.926 9.28643 132.926 9.37284 132.81 9.42571Z" fill="black"/>
<defs>
<linearGradient id="paint0_linear_79_151" x1="0" y1="10.178" x2="154.556" y2="10.178" gradientUnits="userSpaceOnUse">
<stop offset="0.28125" stop-color="#FF0101"/>
<stop offset="0.401042" stop-color="#FAFF01"/>
<stop offset="0.526042" stop-color="#1AFF18"/>
<stop offset="0.645833" stop-color="#FAFF01"/>
<stop offset="0.770833" stop-color="#FF0101"/>
</linearGradient>
</defs>
</svg>
