<svg width="156" height="42" viewBox="0 0 156 42" fill="none" xmlns="http://www.w3.org/2000/svg">
<rect width="156" height="42" rx="21" fill="#EC8931"/>
<path d="M24.35 20.8V23.1H19.75V30H15.15V13.9H24.35V16.2H26.65V20.8H24.35ZM19.75 20.8H22.05V16.2H19.75V20.8ZM32.3955 27.7H39.2955V30H27.7955V13.9H32.3955V27.7ZM47.341 25.4H45.041V30H40.441V16.2H42.741V13.9H49.641V16.2H51.941V30H47.341V25.4ZM45.041 23.1H47.341V16.2H45.041V23.1ZM62.282 23.1V30H57.682V23.1H55.382V20.8H53.082V13.9H57.682V20.8H62.282V13.9H66.882V20.8H64.582V23.1H62.282ZM86.423 25.4H84.123V30H79.523V16.2H81.823V13.9H88.723V16.2H91.023V30H86.423V25.4ZM84.123 23.1H86.423V16.2H84.123V23.1ZM104.814 20.8V30H95.6141V27.7H93.3141V16.2H95.6141V13.9H102.514V16.2H104.814V18.5H100.214V16.2H97.9141V27.7H100.214V20.8H104.814ZM114.005 25.4H111.705V30H107.105V16.2H109.405V13.9H116.305V16.2H118.605V30H114.005V25.4ZM111.705 23.1H114.005V16.2H111.705V23.1ZM125.496 13.9V30H120.896V13.9H125.496ZM134.692 25.4H132.392V30H127.792V13.9H130.092V16.2H132.392V18.5H134.692V13.9H139.292V30H136.992V27.7H134.692V25.4Z" fill="white"/>
</svg>
