<svg width="290" height="491" viewBox="0 0 290 491" fill="none" xmlns="http://www.w3.org/2000/svg">
<rect x="0.5" y="118.5" width="288" height="94" rx="9.5" fill="black" stroke="#00FFE0"/>
<path d="M10.5 131.8H12.3V126.4H15.9V139H12.3V133.6H10.5V139H6.9V126.4H10.5V131.8ZM23.093 137.2V128.2H21.293V137.2H23.093ZM24.893 128.2H26.693V137.2H24.893V139H19.493V137.2H17.693V128.2H19.493V126.4H24.893V128.2ZM39.2859 126.4H42.8859V137.2H41.0859V139H30.2859V137.2H28.4859V126.4H32.0859V137.2H33.8859V133.6H37.4859V137.2H39.2859V126.4ZM63.593 126.4V128.2H59.993V139H56.393V128.2H52.793V126.4H63.593ZM69.8859 137.2V128.2H68.0859V137.2H69.8859ZM71.6859 128.2H73.4859V137.2H71.6859V139H66.2859V137.2H64.4859V128.2H66.2859V126.4H71.6859V128.2ZM91.4789 131.8V133.6H87.8789V139H84.2789V126.4H91.4789V128.2H93.2789V131.8H91.4789ZM87.8789 131.8H89.6789V128.2H87.8789V131.8ZM97.7754 137.2H103.175V139H94.1754V126.4H97.7754V137.2ZM109.472 135.4H107.672V139H104.072V128.2H105.872V126.4H111.272V128.2H113.072V139H109.472V135.4ZM107.672 133.6H109.472V128.2H107.672V133.6ZM121.165 133.6V139H117.565V133.6H115.765V131.8H113.965V126.4H117.565V131.8H121.165V126.4H124.765V131.8H122.965V133.6H121.165Z" fill="#00FFE0"/>
<path d="M24.2416 157.6H25.6416V156.2H28.4416V166H25.6416V159H24.2416V157.6ZM29.8361 163.2H32.6361V166H29.8361V163.2ZM89.7945 159H93.9945V160.4H91.1945V161.8H93.9945V163.2H95.3945V164.6H93.9945V166H88.3945V164.6H92.5945V163.2H89.7945V161.8H88.3945V160.4H89.7945V159ZM98.8945 164.6H100.295V166H97.4945V164.6H96.0945V156.2H98.8945V164.6ZM105.189 161.8V160.4H103.789V161.8H105.189ZM106.589 160.4H107.989V163.2H103.789V164.6H107.989V166H102.389V164.6H100.989V160.4H102.389V159H106.589V160.4ZM113.584 161.8V160.4H112.184V161.8H113.584ZM114.984 160.4H116.384V163.2H112.184V164.6H116.384V166H110.784V164.6H109.384V160.4H110.784V159H114.984V160.4ZM121.978 160.4H120.578V164.6H121.978V160.4ZM123.378 159V160.4H124.778V164.6H123.378V166H120.578V168.8H117.778V159H123.378ZM137.373 160.4H135.973V164.6H137.373V160.4ZM138.773 159V160.4H140.173V164.6H138.773V166H135.973V168.8H133.173V159H138.773ZM147.167 160.4H148.567V166H145.767V160.4H144.367V166H141.567V156.2H144.367V159H147.167V160.4ZM154.162 160.4H152.762V164.6H154.162V160.4ZM151.362 159H155.562V160.4H156.962V166H151.362V164.6H149.962V160.4H151.362V159ZM159.056 159H163.256V160.4H160.456V161.8H163.256V163.2H164.656V164.6H163.256V166H157.656V164.6H161.856V163.2H159.056V161.8H157.656V160.4H159.056V159ZM169.556 161.8V160.4H168.156V161.8H169.556ZM170.956 160.4H172.356V163.2H168.156V164.6H172.356V166H166.756V164.6H165.356V160.4H166.756V159H170.956V160.4ZM184.951 160.4H183.551V164.6H184.951V160.4ZM182.151 159H186.351V160.4H187.751V166H182.151V164.6H180.751V160.4H182.151V159ZM194.745 159V160.4H196.145V166H193.345V160.4H191.945V166H189.145V159H194.745ZM201.74 160.4H200.34V164.6H201.74V160.4ZM198.94 159H201.74V156.2H204.54V166H198.94V164.6H197.54V160.4H198.94V159ZM213.634 159H217.834V160.4H215.034V161.8H217.834V163.2H219.234V164.6H217.834V166H212.234V164.6H216.434V163.2H213.634V161.8H212.234V160.4H213.634V159ZM224.134 161.8V160.4H222.734V161.8H224.134ZM225.534 160.4H226.934V163.2H222.734V164.6H226.934V166H221.334V164.6H219.934V160.4H221.334V159H225.534V160.4ZM231.129 159H232.529V160.4H231.129V164.6H232.529V166H229.729V164.6H228.329V156.2H231.129V159ZM243.734 159H245.134V160.4H243.734V164.6H245.134V166H242.334V164.6H240.934V156.2H243.734V159ZM246.54 159H249.34V166H246.54V159ZM246.54 156.2H249.34V157.6H246.54V156.2ZM260.537 159V160.4H261.937V166H259.137V160.4H257.737V166H254.937V160.4H253.537V166H250.737V159H260.537ZM267.543 161.8V160.4H266.143V161.8H267.543ZM268.943 160.4H270.343V163.2H266.143V164.6H270.343V166H264.743V164.6H263.343V160.4H264.743V159H268.943V160.4ZM271.737 163.2H274.537V166H271.737V163.2ZM21.4416 174.6H22.8416V173.2H27.0416V174.6H28.4416V177.4H27.0416V178.8H24.2416V181.6H28.4416V183H21.4416V178.8H22.8416V177.4H25.6416V174.6H24.2416V176H21.4416V174.6ZM29.8361 180.2H32.6361V183H29.8361V180.2ZM75.0809 176H77.8809V183H75.0809V176ZM75.0809 173.2H77.8809V174.6H75.0809V173.2ZM84.8781 176V177.4H86.2781V183H83.4781V177.4H82.0781V183H79.2781V176H84.8781ZM97.4727 176H98.8727V177.4H97.4727V181.6H98.8727V183H96.0727V181.6H94.6727V173.2H97.4727V176ZM105.878 177.4H107.278V183H104.478V177.4H103.078V183H100.278V173.2H103.078V176H105.878V177.4ZM112.873 178.8V177.4H111.473V178.8H112.873ZM114.273 177.4H115.673V180.2H111.473V181.6H115.673V183H110.073V181.6H108.673V177.4H110.073V176H114.273V177.4ZM126.867 181.6H128.267V183H125.467V181.6H124.067V173.2H126.867V181.6ZM133.162 177.4H131.762V181.6H133.162V177.4ZM130.362 176H134.562V177.4H135.962V183H130.362V181.6H128.962V177.4H130.362V176ZM138.056 176H142.256V177.4H139.456V178.8H142.256V180.2H143.656V181.6H142.256V183H136.656V181.6H140.856V180.2H138.056V178.8H136.656V177.4H138.056V176ZM147.156 176H148.556V177.4H147.156V181.6H148.556V183H145.756V181.6H144.356V173.2H147.156V176ZM161.162 181.6V177.4H159.762V181.6H161.162ZM163.962 184.4H162.562V185.8H159.762V184.4H161.162V183H158.362V181.6H156.962V177.4H158.362V176H163.962V184.4ZM170.956 181.6V183H166.756V181.6H165.356V177.4H166.756V176H170.956V177.4H172.356V181.6H170.956ZM168.156 181.6H169.556V177.4H168.156V181.6ZM179.351 181.6V183H175.151V181.6H173.751V177.4H175.151V176H179.351V177.4H180.751V181.6H179.351ZM176.551 181.6H177.951V177.4H176.551V181.6ZM186.345 177.4H184.945V181.6H186.345V177.4ZM183.545 176H186.345V173.2H189.145V183H183.545V181.6H182.145V177.4H183.545V176ZM201.74 177.4H200.34V181.6H201.74V177.4ZM203.14 176V177.4H204.54V181.6H203.14V183H200.34V185.8H197.54V176H203.14ZM211.534 177.4H212.934V183H210.134V177.4H208.734V183H205.934V173.2H208.734V176H211.534V177.4ZM218.529 177.4H217.129V181.6H218.529V177.4ZM215.729 176H219.929V177.4H221.329V183H215.729V181.6H214.329V177.4H215.729V176ZM223.423 176H227.623V177.4H224.823V178.8H227.623V180.2H229.023V181.6H227.623V183H222.023V181.6H226.223V180.2H223.423V178.8H222.023V177.4H223.423V176ZM233.923 178.8V177.4H232.523V178.8H233.923ZM235.323 177.4H236.723V180.2H232.523V181.6H236.723V183H231.123V181.6H229.723V177.4H231.123V176H235.323V177.4ZM42.9 194.4H41.5V198.6H42.9V194.4ZM41.5 193H44.3V194.4H45.7V198.6H44.3V200H40.1V198.6H38.7V190.2H41.5V193ZM51.2945 195.8V194.4H49.8945V195.8H51.2945ZM52.6945 194.4H54.0945V197.2H49.8945V198.6H54.0945V200H48.4945V198.6H47.0945V194.4H48.4945V193H52.6945V194.4ZM58.2891 195.8H59.6891V197.2H58.2891V200H55.4891V191.6H56.8891V190.2H61.0891V191.6H58.2891V195.8ZM66.6945 198.6V200H62.4945V198.6H61.0945V194.4H62.4945V193H66.6945V194.4H68.0945V198.6H66.6945ZM63.8945 198.6H65.2945V194.4H63.8945V198.6ZM70.8891 193H75.0891V194.4H72.2891V200H69.4891V194.4H70.8891V193ZM79.9918 195.8V194.4H78.5918V195.8H79.9918ZM81.3918 194.4H82.7918V197.2H78.5918V198.6H82.7918V200H77.1918V198.6H75.7918V194.4H77.1918V193H81.3918V194.4ZM91.8863 193H96.0863V194.4H93.2863V195.8H96.0863V197.2H97.4863V198.6H96.0863V200H90.4863V198.6H94.6863V197.2H91.8863V195.8H90.4863V194.4H91.8863V193ZM102.386 195.8V194.4H100.986V195.8H102.386ZM103.786 194.4H105.186V197.2H100.986V198.6H105.186V200H99.5863V198.6H98.1863V194.4H99.5863V193H103.786V194.4ZM109.381 193H110.781V194.4H109.381V198.6H110.781V200H107.981V198.6H106.581V190.2H109.381V193ZM121.986 193H123.386V194.4H121.986V198.6H123.386V200H120.586V198.6H119.186V190.2H121.986V193ZM124.792 193H127.592V200H124.792V193ZM124.792 190.2H127.592V191.6H124.792V190.2ZM138.789 193V194.4H140.189V200H137.389V194.4H135.989V200H133.189V194.4H131.789V200H128.989V193H138.789ZM145.795 195.8V194.4H144.395V195.8H145.795ZM147.195 194.4H148.595V197.2H144.395V198.6H148.595V200H142.995V198.6H141.595V194.4H142.995V193H147.195V194.4ZM149.989 197.2H152.789V200H149.989V197.2Z" fill="#00FFE0"/>
<path d="M47.1 156.2H49.9V164.6H48.5V166H40.1V164.6H38.7V156.2H41.5V164.6H42.9V161.8H45.7V164.6H47.1V156.2ZM55.5055 160.4H54.1055V164.6H55.5055V160.4ZM52.7055 159H56.9055V160.4H58.3055V166H52.7055V164.6H51.3055V160.4H52.7055V159ZM62.5 159H63.9V160.4H62.5V164.6H63.9V166H61.1V164.6H59.7V156.2H62.5V159ZM70.9055 160.4H72.3055V161.8H69.5055V160.4H68.1055V164.6H69.5055V163.2H72.3055V164.6H70.9055V166H66.7055V164.6H65.3055V160.4H66.7055V159H70.9055V160.4ZM79.3 160.4H80.7V166H77.9V160.4H76.5V166H73.7V156.2H76.5V159H79.3V160.4ZM41.5 177.4H42.9V174.6H41.5V177.4ZM38.7 173.2H44.3V174.6H45.7V177.4H44.3V178.8H45.7V183H42.9V178.8H41.5V183H38.7V173.2ZM47.0945 176H49.8945V183H47.0945V176ZM47.0945 173.2H49.8945V174.6H47.0945V173.2ZM56.8918 176V177.4H58.2918V183H55.4918V177.4H54.0918V183H51.2918V176H56.8918ZM63.8863 181.6V177.4H62.4863V181.6H63.8863ZM66.6863 184.4H65.2863V185.8H62.4863V184.4H63.8863V183H61.0863V181.6H59.6863V177.4H61.0863V176H66.6863V184.4Z" fill="#FF6C00"/>
<path d="M38 168.002H81.4V168.282H38V168.002ZM38 185.002H67.3863V185.282H38V185.002Z" fill="#FF6C00"/>
<rect x="0.5" y="0.5" width="288" height="109" rx="9.5" fill="black" stroke="#00FFE0"/>
<path d="M13.2 15.6V21H9.6V15.6H7.8V13.8H6V8.4H9.6V13.8H13.2V8.4H16.8V13.8H15V15.6H13.2ZM23.093 19.2V10.2H21.293V19.2H23.093ZM24.893 10.2H26.693V19.2H24.893V21H19.493V19.2H17.693V10.2H19.493V8.4H24.893V10.2ZM33.8859 8.4H37.4859V19.2H35.6859V21H30.2859V19.2H28.4859V8.4H32.0859V19.2H33.8859V8.4ZM42.8789 13.8H44.6789V10.2H42.8789V13.8ZM39.2789 8.4H46.4789V10.2H48.2789V13.8H46.4789V15.6H48.2789V21H44.6789V15.6H42.8789V21H39.2789V8.4ZM68.0719 13.8V21H60.8719V19.2H59.0719V10.2H60.8719V8.4H66.2719V10.2H68.0719V12H64.4719V10.2H62.6719V19.2H64.4719V13.8H68.0719ZM75.2648 19.2V10.2H73.4648V19.2H75.2648ZM77.0648 10.2H78.8648V19.2H77.0648V21H71.6648V19.2H69.8648V10.2H71.6648V8.4H77.0648V10.2ZM86.0578 17.4H84.2578V21H80.6578V10.2H82.4578V8.4H87.8578V10.2H89.6578V21H86.0578V17.4ZM84.2578 15.6H86.0578V10.2H84.2578V15.6ZM95.0508 19.2H100.451V21H91.4508V8.4H95.0508V19.2Z" fill="#00FFE0"/>
<path d="M22.6 43.8V48H19.8V43.8H18.4V42.4H17V38.2H19.8V42.4H22.6V38.2H25.4V42.4H24V43.8H22.6ZM31.6945 46.6V48H27.4945V46.6H26.0945V42.4H27.4945V41H31.6945V42.4H33.0945V46.6H31.6945ZM28.8945 46.6H30.2945V42.4H28.8945V46.6ZM38.6891 41H41.4891V48H35.8891V46.6H34.4891V41H37.2891V46.6H38.6891V41ZM42.8836 38.2H45.6836V41H42.8836V38.2ZM48.4809 41H52.6809V42.4H49.8809V48H47.0809V42.4H48.4809V41ZM57.5836 43.8V42.4H56.1836V43.8H57.5836ZM58.9836 42.4H60.3836V45.2H56.1836V46.6H60.3836V48H54.7836V46.6H53.3836V42.4H54.7836V41H58.9836V42.4ZM72.9781 42.4H71.5781V46.6H72.9781V42.4ZM70.1781 41H74.3781V42.4H75.7781V48H70.1781V46.6H68.7781V42.4H70.1781V41ZM82.7727 41V42.4H84.1727V48H81.3727V42.4H79.9727V48H77.1727V41H82.7727ZM96.7672 42.4H95.3672V46.6H96.7672V42.4ZM93.9672 41H98.1672V42.4H99.5672V48H93.9672V46.6H92.5672V42.4H93.9672V41ZM103.762 46.6H105.162V48H102.362V46.6H100.962V38.2H103.762V46.6ZM110.056 42.4H108.656V46.6H110.056V42.4ZM107.256 41H111.456V42.4H112.856V48H107.256V46.6H105.856V42.4H107.256V41ZM115.651 41H119.851V42.4H117.051V48H114.251V42.4H115.651V41ZM130.354 41V42.4H131.754V48H128.954V42.4H127.554V48H124.754V42.4H123.354V48H120.554V41H130.354ZM145.759 42.4H147.159V43.8H144.359V42.4H142.959V46.6H144.359V45.2H147.159V46.6H145.759V48H141.559V46.6H140.159V42.4H141.559V41H145.759V42.4ZM151.354 46.6H152.754V48H149.954V46.6H148.554V38.2H151.354V46.6ZM159.048 46.6V48H154.848V46.6H153.448V42.4H154.848V41H159.048V42.4H160.448V46.6H159.048ZM156.248 46.6H157.648V42.4H156.248V46.6ZM167.443 42.4H168.843V43.8H166.043V42.4H164.643V46.6H166.043V45.2H168.843V46.6H167.443V48H163.243V46.6H161.843V42.4H163.243V41H167.443V42.4ZM174.437 41H177.237V43.8H175.837V45.2H177.237V48H174.437V45.2H173.037V48H170.237V38.2H173.037V43.8H174.437V41ZM178.632 45.2H181.432V48H178.632V45.2ZM26.1 55.2H28.9V63.6H27.5V65H19.1V63.6H17.7V55.2H20.5V63.6H21.9V60.8H24.7V63.6H26.1V55.2ZM34.5055 59.4H33.1055V63.6H34.5055V59.4ZM31.7055 58H35.9055V59.4H37.3055V65H31.7055V63.6H30.3055V59.4H31.7055V58ZM42.9 58H45.7V60.8H44.3V62.2H45.7V65H42.9V62.2H41.5V65H38.7V55.2H41.5V60.8H42.9V58ZM51.2945 60.8V59.4H49.8945V60.8H51.2945ZM52.6945 59.4H54.0945V62.2H49.8945V63.6H54.0945V65H48.4945V63.6H47.0945V59.4H48.4945V58H52.6945V59.4ZM66.6891 59.4H65.2891V63.6H66.6891V59.4ZM68.0891 58V59.4H69.4891V63.6H68.0891V65H65.2891V67.8H62.4891V58H68.0891ZM75.0836 60.8V59.4H73.6836V60.8H75.0836ZM76.4836 59.4H77.8836V62.2H73.6836V63.6H77.8836V65H72.2836V63.6H70.8836V59.4H72.2836V58H76.4836V59.4ZM84.8781 63.6V65H80.6781V63.6H79.2781V59.4H80.6781V58H84.8781V59.4H86.2781V63.6H84.8781ZM82.0781 63.6H83.4781V59.4H82.0781V63.6ZM91.8727 59.4H90.4727V63.6H91.8727V59.4ZM93.2727 58V59.4H94.6727V63.6H93.2727V65H90.4727V67.8H87.6727V58H93.2727ZM98.8672 63.6H100.267V65H97.4672V63.6H96.0672V55.2H98.8672V63.6ZM105.162 60.8V59.4H103.762V60.8H105.162ZM106.562 59.4H107.962V62.2H103.762V63.6H107.962V65H102.362V63.6H100.962V59.4H102.362V58H106.562V59.4ZM120.556 58H123.356V65H117.756V63.6H116.356V58H119.156V63.6H120.556V58ZM128.951 59.4H127.551V63.6H128.951V59.4ZM130.351 58V59.4H131.751V63.6H130.351V65H127.551V67.8H124.751V58H130.351ZM140.145 58H142.945V65H140.145V58ZM140.145 55.2H142.945V56.6H140.145V55.2ZM149.943 58V59.4H151.343V65H148.543V59.4H147.143V65H144.343V58H149.943ZM162.537 58H163.937V59.4H162.537V63.6H163.937V65H161.137V63.6H159.737V55.2H162.537V58ZM170.943 59.4H172.343V65H169.543V59.4H168.143V65H165.343V55.2H168.143V58H170.943V59.4ZM177.937 60.8V59.4H176.537V60.8H177.937ZM179.337 59.4H180.737V62.2H176.537V63.6H180.737V65H175.137V63.6H173.737V59.4H175.137V58H179.337V59.4ZM190.532 58H194.732V59.4H191.932V65H189.132V59.4H190.532V58ZM195.434 58H198.234V65H195.434V58ZM195.434 55.2H198.234V56.6H195.434V55.2ZM203.832 63.6V59.4H202.432V63.6H203.832ZM206.632 66.4H205.232V67.8H202.432V66.4H203.832V65H201.032V63.6H199.632V59.4H201.032V58H206.632V66.4ZM213.626 59.4H215.026V65H212.226V59.4H210.826V65H208.026V55.2H210.826V58H213.626V59.4ZM219.221 58H220.621V59.4H219.221V63.6H220.621V65H217.821V63.6H216.421V55.2H219.221V58ZM229.726 58H233.926V59.4H231.126V60.8H233.926V62.2H235.326V63.6H233.926V65H228.326V63.6H232.526V62.2H229.726V60.8H228.326V59.4H229.726V58ZM238.826 63.6H240.226V65H237.426V63.6H236.026V55.2H238.826V63.6ZM245.121 60.8V59.4H243.721V60.8H245.121ZM246.521 59.4H247.921V62.2H243.721V63.6H247.921V65H242.321V63.6H240.921V59.4H242.321V58H246.521V59.4ZM253.515 60.8V59.4H252.115V60.8H253.515ZM254.915 59.4H256.315V62.2H252.115V63.6H256.315V65H250.715V63.6H249.315V59.4H250.715V58H254.915V59.4ZM261.91 59.4H260.51V63.6H261.91V59.4ZM263.31 58V59.4H264.71V63.6H263.31V65H260.51V67.8H257.71V58H263.31ZM21.9 76.4H20.5V80.6H21.9V76.4ZM23.3 75V76.4H24.7V80.6H23.3V82H20.5V84.8H17.7V75H23.3ZM31.6945 76.4H33.0945V82H30.2945V76.4H28.8945V82H26.0945V72.2H28.8945V75H31.6945V76.4ZM38.6891 76.4H37.2891V80.6H38.6891V76.4ZM35.8891 75H40.0891V76.4H41.4891V82H35.8891V80.6H34.4891V76.4H35.8891V75ZM43.5836 75H47.7836V76.4H44.9836V77.8H47.7836V79.2H49.1836V80.6H47.7836V82H42.1836V80.6H46.3836V79.2H43.5836V77.8H42.1836V76.4H43.5836V75ZM54.0836 77.8V76.4H52.6836V77.8H54.0836ZM55.4836 76.4H56.8836V79.2H52.6836V80.6H56.8836V82H51.2836V80.6H49.8836V76.4H51.2836V75H55.4836V76.4ZM66.6781 72.2H69.4781V73.6H68.0781V82H69.4781V83.4H66.6781V82H65.2781V73.6H66.6781V72.2ZM75.0836 80.6V76.4H73.6836V80.6H75.0836ZM77.8836 83.4H76.4836V84.8H73.6836V83.4H75.0836V82H72.2836V80.6H70.8836V76.4H72.2836V75H77.8836V83.4ZM80.6781 75H84.8781V76.4H82.0781V82H79.2781V76.4H80.6781V75ZM89.7809 77.8V76.4H88.3809V77.8H89.7809ZM91.1809 76.4H92.5809V79.2H88.3809V80.6H92.5809V82H86.9809V80.6H85.5809V76.4H86.9809V75H91.1809V76.4ZM98.1754 77.8V76.4H96.7754V77.8H98.1754ZM99.5754 76.4H100.975V79.2H96.7754V80.6H100.975V82H95.3754V80.6H93.9754V76.4H95.3754V75H99.5754V76.4ZM107.97 75V76.4H109.37V82H106.57V76.4H105.17V82H102.37V75H107.97ZM114.264 72.2H117.064V75H115.664V77.8H114.264V80.6H112.864V83.4H110.064V80.6H111.464V77.8H112.864V75H114.264V72.2ZM121.964 75H124.764V83.4H123.364V84.8H120.564V83.4H121.964V82H119.164V80.6H117.764V75H120.564V80.6H121.964V75ZM130.359 77.8V76.4H128.959V77.8H130.359ZM131.759 76.4H133.159V79.2H128.959V80.6H133.159V82H127.559V80.6H126.159V76.4H127.559V75H131.759V76.4ZM137.354 80.6H138.754V82H135.954V80.6H134.554V72.2H137.354V80.6ZM142.248 80.6H143.648V82H140.848V80.6H139.448V72.2H142.248V80.6ZM149.943 80.6V82H145.743V80.6H144.343V76.4H145.743V75H149.943V76.4H151.343V80.6H149.943ZM147.143 80.6H148.543V76.4H147.143V80.6ZM155.537 80.6H156.937V77.8H159.737V80.6H161.137V75H163.937V80.6H162.537V82H154.137V80.6H152.737V75H155.537V80.6ZM177.943 76.4V77.8H176.543V79.2H175.143V80.6H179.343V82H172.343V79.2H173.743V77.8H175.143V76.4H172.343V75H179.343V76.4H177.943ZM186.337 80.6V82H182.137V80.6H180.737V76.4H182.137V75H186.337V76.4H187.737V80.6H186.337ZM183.537 80.6H184.937V76.4H183.537V80.6ZM194.732 75V76.4H196.132V82H193.332V76.4H191.932V82H189.132V75H194.732ZM201.726 77.8V76.4H200.326V77.8H201.726ZM203.126 76.4H204.526V79.2H200.326V80.6H204.526V82H198.926V80.6H197.526V76.4H198.926V75H203.126V76.4ZM208.721 72.2V73.6H210.121V82H208.721V83.4H205.921V82H207.321V73.6H205.921V72.2H208.721ZM224.126 76.4H225.526V77.8H222.726V76.4H221.326V80.6H222.726V79.2H225.526V80.6H224.126V82H219.926V80.6H218.526V76.4H219.926V75H224.126V76.4ZM229.721 80.6H231.121V82H228.321V80.6H226.921V72.2H229.721V80.6ZM237.415 80.6V82H233.215V80.6H231.815V76.4H233.215V75H237.415V76.4H238.815V80.6H237.415ZM234.615 80.6H236.015V76.4H234.615V80.6ZM240.91 75H245.11V76.4H242.31V77.8H245.11V79.2H246.51V80.6H245.11V82H239.51V80.6H243.71V79.2H240.91V77.8H239.51V76.4H240.91V75ZM251.41 77.8V76.4H250.01V77.8H251.41ZM252.81 76.4H254.21V79.2H250.01V80.6H254.21V82H248.61V80.6H247.21V76.4H248.61V75H252.81V76.4ZM256.304 75H260.504V76.4H257.704V77.8H260.504V79.2H261.904V80.6H260.504V82H254.904V80.6H259.104V79.2H256.304V77.8H254.904V76.4H256.304V75ZM265.404 75H266.804V76.4H265.404V80.6H266.804V82H264.004V80.6H262.604V72.2H265.404V75ZM20.5 92H21.9V93.4H20.5V97.6H21.9V99H19.1V97.6H17.7V89.2H20.5V92ZM28.9055 97.6V99H24.7055V97.6H23.3055V93.4H24.7055V92H28.9055V93.4H30.3055V97.6H28.9055ZM26.1055 97.6H27.5055V93.4H26.1055V97.6ZM41.5 92H42.9V93.4H41.5V97.6H42.9V99H40.1V97.6H38.7V89.2H41.5V92ZM49.9055 93.4H51.3055V99H48.5055V93.4H47.1055V99H44.3055V89.2H47.1055V92H49.9055V93.4ZM56.9 94.8V93.4H55.5V94.8H56.9ZM58.3 93.4H59.7V96.2H55.5V97.6H59.7V99H54.1V97.6H52.7V93.4H54.1V92H58.3V93.4ZM61.0945 92H63.8945V99H61.0945V92ZM61.0945 89.2H63.8945V90.6H61.0945V89.2ZM66.6918 92H70.8918V93.4H68.0918V99H65.2918V93.4H66.6918V92ZM79.2945 92H83.4945V93.4H80.6945V94.8H83.4945V96.2H84.8945V97.6H83.4945V99H77.8945V97.6H82.0945V96.2H79.2945V94.8H77.8945V93.4H79.2945V92ZM89.7945 94.8V93.4H88.3945V94.8H89.7945ZM91.1945 93.4H92.5945V96.2H88.3945V97.6H92.5945V99H86.9945V97.6H85.5945V93.4H86.9945V92H91.1945V93.4ZM96.7891 92H98.1891V93.4H96.7891V97.6H98.1891V99H95.3891V97.6H93.9891V89.2H96.7891V92ZM109.395 92H110.795V93.4H109.395V97.6H110.795V99H107.995V97.6H106.595V89.2H109.395V92ZM112.2 92H115V99H112.2V92ZM112.2 89.2H115V90.6H112.2V89.2ZM126.197 92V93.4H127.597V99H124.797V93.4H123.397V99H120.597V93.4H119.197V99H116.397V92H126.197ZM133.203 94.8V93.4H131.803V94.8H133.203ZM134.603 93.4H136.003V96.2H131.803V97.6H136.003V99H130.403V97.6H129.003V93.4H130.403V92H134.603V93.4ZM137.397 96.2H140.197V99H137.397V96.2Z" fill="#00FFE0"/>
<rect x="1.5" y="219.5" width="288" height="271" rx="9.5" fill="black" stroke="#00FFE0"/>
<path d="M11.5 236.306H13.3V230.906H16.9V234.506H15.1V239.906H16.9V243.506H13.3V238.106H11.5V243.506H7.9V230.906H11.5V236.306ZM22.293 241.706H27.693V243.506H18.693V230.906H27.693V232.706H22.293V236.306H25.893V238.106H22.293V241.706ZM34.8895 238.106V243.506H31.2895V238.106H29.4895V236.306H27.6895V230.906H31.2895V236.306H34.8895V230.906H38.4895V236.306H36.6895V238.106H34.8895ZM55.5824 236.306V238.106H51.9824V243.506H48.3824V230.906H55.5824V232.706H57.3824V236.306H55.5824ZM51.9824 236.306H53.7824V232.706H51.9824V236.306ZM63.6789 241.706V232.706H61.8789V241.706H63.6789ZM65.4789 232.706H67.2789V241.706H65.4789V243.506H60.0789V241.706H58.2789V232.706H60.0789V230.906H65.4789V232.706ZM72.6719 230.906V243.506H69.0719V230.906H72.6719ZM79.8684 239.906H78.0684V243.506H74.4684V230.906H76.2684V232.706H78.0684V234.506H79.8684V230.906H83.4684V243.506H81.6684V241.706H79.8684V239.906ZM95.1613 230.906V232.706H91.5613V243.506H87.9613V232.706H84.3613V230.906H95.1613ZM102.358 232.706H104.158V234.506H100.558V232.706H98.7578V236.306H102.358V238.106H104.158V241.706H102.358V243.506H96.9578V241.706H95.1578V239.906H98.7578V241.706H100.558V238.106H96.9578V236.306H95.1578V232.706H96.9578V230.906H102.358V232.706Z" fill="#00FFE0"/>
<path d="M25.7 259.658V261.058H21.5V263.858H24.3V265.258H25.7V268.058H24.3V269.458H20.1V268.058H18.7V266.658H21.5V268.058H22.9V265.258H18.7V259.658H25.7ZM25.6973 265.258H32.6973V266.658H25.6973V265.258ZM32.6973 261.058H34.0973V259.658H36.8973V269.458H34.0973V262.458H32.6973V261.058ZM43.8918 268.058V269.458H39.6918V268.058H38.2918V261.058H39.6918V259.658H43.8918V261.058H45.2918V268.058H43.8918ZM41.0918 268.058H42.4918V261.058H41.0918V268.058ZM62.0863 259.658H63.4863V269.458H60.6863V265.258H59.2863V266.658H57.8863V265.258H56.4863V269.458H53.6863V259.658H55.0863V261.058H56.4863V262.458H57.8863V263.858H59.2863V262.458H60.6863V261.058H62.0863V259.658ZM67.6836 259.658V269.458H64.8836V259.658H67.6836ZM73.2809 266.658H71.8809V269.458H69.0809V259.658H70.4809V261.058H71.8809V262.458H73.2809V259.658H76.0809V269.458H74.6809V268.058H73.2809V266.658ZM91.4754 263.858V269.458H85.8754V268.058H84.4754V261.058H85.8754V259.658H90.0754V261.058H91.4754V262.458H88.6754V261.058H87.2754V268.058H88.6754V263.858H91.4754ZM95.6699 263.858H97.0699V261.058H95.6699V263.858ZM92.8699 259.658H98.4699V261.058H99.8699V263.858H98.4699V265.258H99.8699V269.458H97.0699V265.258H95.6699V269.458H92.8699V259.658ZM105.464 266.658H104.064V269.458H101.264V261.058H102.664V259.658H106.864V261.058H108.264V269.458H105.464V266.658ZM104.064 265.258H105.464V261.058H104.064V265.258ZM112.459 268.058H113.859V266.658H116.659V268.058H115.259V269.458H111.059V268.058H109.659V261.058H111.059V259.658H115.259V261.058H116.659V262.458H113.859V261.058H112.459V268.058ZM120.156 268.058H124.356V269.458H117.356V259.658H124.356V261.058H120.156V263.858H122.956V265.258H120.156V268.058ZM125.054 266.658H127.854V269.458H125.054V266.658ZM125.054 262.458H127.854V265.258H125.054V262.458ZM24.3 314.858V316.258H21.5V320.458H18.7V310.658H24.3V312.058H25.7V314.858H24.3ZM21.5 314.858H22.9V312.058H21.5V314.858ZM29.1973 319.058H33.3973V320.458H26.3973V310.658H33.3973V312.058H29.1973V314.858H31.9973V316.258H29.1973V319.058ZM38.2945 317.658H36.8945V320.458H34.0945V310.658H35.4945V312.058H36.8945V313.458H38.2945V310.658H41.0945V320.458H39.6945V319.058H38.2945V317.658ZM46.6891 317.658H45.2891V320.458H42.4891V312.058H43.8891V310.658H48.0891V312.058H49.4891V320.458H46.6891V317.658ZM45.2891 316.258H46.6891V312.058H45.2891V316.258ZM53.6836 319.058H57.8836V320.458H50.8836V310.658H53.6836V319.058ZM64.8863 310.658V312.058H62.0863V320.458H59.2863V312.058H56.4863V310.658H64.8863ZM70.4809 316.258V320.458H67.6809V316.258H66.2809V314.858H64.8809V310.658H67.6809V314.858H70.4809V310.658H73.2809V314.858H71.8809V316.258H70.4809ZM73.9754 317.658H76.7754V320.458H73.9754V317.658ZM73.9754 313.458H76.7754V316.258H73.9754V313.458ZM21.5 365.858H22.9V363.058H21.5V365.858ZM24.3 370.058V371.458H18.7V361.658H24.3V363.058H25.7V365.858H24.3V367.258H25.7V370.058H24.3ZM21.5 370.058H22.9V367.258H21.5V370.058ZM31.2945 370.058V363.058H29.8945V370.058H31.2945ZM32.6945 363.058H34.0945V370.058H32.6945V371.458H28.4945V370.058H27.0945V363.058H28.4945V361.658H32.6945V363.058ZM39.6891 368.658H38.2891V371.458H35.4891V361.658H36.8891V363.058H38.2891V364.458H39.6891V361.658H42.4891V371.458H41.0891V370.058H39.6891V368.658ZM48.0836 361.658H50.8836V370.058H49.4836V371.458H45.2836V370.058H43.8836V361.658H46.6836V370.058H48.0836V361.658ZM57.8781 363.058H59.2781V364.458H56.4781V363.058H55.0781V365.858H57.8781V367.258H59.2781V370.058H57.8781V371.458H53.6781V370.058H52.2781V368.658H55.0781V370.058H56.4781V367.258H53.6781V365.858H52.2781V363.058H53.6781V361.658H57.8781V363.058ZM60.6727 368.658H63.4727V371.458H60.6727V368.658ZM60.6727 364.458H63.4727V367.258H60.6727V364.458ZM21.5 421.058H25.7V422.458H18.7V412.658H25.7V414.058H21.5V416.858H24.3V418.258H21.5V421.058ZM29.1973 421.058H30.5973V415.458H33.3973V419.658H31.9973V422.458H27.7973V419.658H26.3973V415.458H29.1973V421.058ZM38.9918 418.258V416.858H37.5918V418.258H38.9918ZM40.3918 416.858H41.7918V419.658H37.5918V421.058H41.7918V422.458H36.1918V421.058H34.7918V416.858H36.1918V415.458H40.3918V416.858ZM44.5863 415.458H48.7863V416.858H45.9863V422.458H43.1863V416.858H44.5863V415.458ZM53.6891 415.458H56.4891V423.858H55.0891V425.258H52.2891V423.858H53.6891V422.458H50.8891V421.058H49.4891V415.458H52.2891V421.058H53.6891V415.458ZM71.8836 412.658V414.058H67.6836V416.858H70.4836V418.258H71.8836V421.058H70.4836V422.458H66.2836V421.058H64.8836V419.658H67.6836V421.058H69.0836V418.258H64.8836V412.658H71.8836ZM75.3809 415.458H76.7809V416.858H75.3809V421.058H76.7809V422.458H73.9809V421.058H72.5809V412.658H75.3809V415.458ZM83.7863 416.858H85.1863V422.458H82.3863V416.858H80.9863V422.458H78.1863V412.658H80.9863V415.458H83.7863V416.858ZM99.1809 421.058V422.458H93.5809V412.658H99.1809V414.058H100.581V421.058H99.1809ZM96.3809 421.058H97.7809V414.058H96.3809V421.058ZM106.175 416.858H104.775V421.058H106.175V416.858ZM103.375 415.458H107.575V416.858H108.975V422.458H103.375V421.058H101.975V416.858H103.375V415.458ZM114.57 415.458H117.37V423.858H115.97V425.258H113.17V423.858H114.57V422.458H111.77V421.058H110.37V415.458H113.17V421.058H114.57V415.458ZM118.764 419.658H121.564V422.458H118.764V419.658ZM118.764 415.458H121.564V418.258H118.764V415.458ZM24.3 448.058H25.7V449.458H22.9V448.058H21.5V450.858H24.3V452.258H25.7V455.058H24.3V456.458H20.1V455.058H18.7V453.658H21.5V455.058H22.9V452.258H20.1V450.858H18.7V448.058H20.1V446.658H24.3V448.058ZM32.6945 450.858V452.258H29.8945V456.458H27.0945V446.658H32.6945V448.058H34.0945V450.858H32.6945ZM29.8945 450.858H31.2945V448.058H29.8945V450.858ZM37.5918 455.058H41.7918V456.458H34.7918V446.658H41.7918V448.058H37.5918V450.858H40.3918V452.258H37.5918V455.058ZM45.2891 455.058H49.4891V456.458H42.4891V446.658H49.4891V448.058H45.2891V450.858H48.0891V452.258H45.2891V455.058ZM55.7863 455.058V456.458H50.1863V446.658H55.7863V448.058H57.1863V455.058H55.7863ZM52.9863 455.058H54.3863V448.058H52.9863V455.058ZM69.7809 446.658H72.5809V455.058H71.1809V456.458H66.9809V455.058H65.5809V446.658H68.3809V455.058H69.7809V446.658ZM79.5754 450.858V452.258H76.7754V456.458H73.9754V446.658H79.5754V448.058H80.9754V450.858H79.5754ZM76.7754 450.858H78.1754V448.058H76.7754V450.858ZM81.6727 453.658H84.4727V456.458H81.6727V453.658ZM81.6727 449.458H84.4727V452.258H81.6727V449.458Z" fill="#FF6C00"/>
<path d="M139.051 268.058H140.451V266.658H143.251V268.058H141.851V269.458H137.651V268.058H136.251V261.058H137.651V259.658H141.851V261.058H143.251V262.458H140.451V261.058H139.051V268.058ZM148.148 263.858H146.748V268.058H148.148V263.858ZM145.348 262.458H149.548V263.858H150.948V269.458H145.348V268.058H143.948V263.858H145.348V262.458ZM157.943 262.458V263.858H159.343V269.458H156.543V263.858H155.143V269.458H152.343V262.458H157.943ZM173.337 268.058V269.458H169.137V268.058H167.737V263.858H169.137V262.458H173.337V263.858H174.737V268.058H173.337ZM170.537 268.058H171.937V263.858H170.537V268.058ZM178.932 268.058H180.332V262.458H183.132V266.658H181.732V269.458H177.532V266.658H176.132V262.458H178.932V268.058ZM188.726 265.258V263.858H187.326V265.258H188.726ZM190.126 263.858H191.526V266.658H187.326V268.058H191.526V269.458H185.926V268.058H184.526V263.858H185.926V262.458H190.126V263.858ZM194.321 262.458H198.521V263.858H195.721V269.458H192.921V263.858H194.321V262.458ZM199.923 262.458H204.123V263.858H201.323V265.258H204.123V266.658H205.523V268.058H204.123V269.458H198.523V268.058H202.723V266.658H199.923V265.258H198.523V263.858H199.923V262.458ZM209.023 268.058H210.423V269.458H207.623V268.058H206.223V259.658H209.023V268.058ZM215.318 265.258V263.858H213.918V265.258H215.318ZM216.718 263.858H218.118V266.658H213.918V268.058H218.118V269.458H212.518V268.058H211.118V263.858H212.518V262.458H216.718V263.858ZM223.713 265.258V263.858H222.312V265.258H223.713ZM225.113 263.858H226.513V266.658H222.312V268.058H226.513V269.458H220.913V268.058H219.513V263.858H220.913V262.458H225.113V263.858ZM232.107 263.858H230.707V268.058H232.107V263.858ZM233.507 262.458V263.858H234.907V268.058H233.507V269.458H230.707V272.258H227.907V262.458H233.507ZM247.502 263.858H246.102V268.058H247.502V263.858ZM244.702 262.458H248.902V263.858H250.302V269.458H244.702V268.058H243.302V263.858H244.702V262.458ZM262.896 263.858H261.496V268.058H262.896V263.858ZM261.496 262.458H264.296V263.858H265.696V268.058H264.296V269.458H260.096V268.058H258.696V259.658H261.496V262.458ZM267.091 262.458H269.891V269.458H267.091V262.458ZM267.091 259.658H269.891V261.058H267.091V259.658ZM274.088 262.458H275.488V263.858H274.088V268.058H275.488V269.458H272.688V268.058H271.288V259.658H274.088V262.458ZM21.5 279.458H22.9V280.858H21.5V285.058H22.9V286.458H20.1V285.058H18.7V276.658H21.5V279.458ZM29.9055 285.058V286.458H25.7055V285.058H24.3055V280.858H25.7055V279.458H29.9055V280.858H31.3055V285.058H29.9055ZM27.1055 285.058H28.5055V280.858H27.1055V285.058ZM45.3 280.858H46.7V282.258H43.9V280.858H42.5V285.058H43.9V283.658H46.7V285.058H45.3V286.458H41.1V285.058H39.7V280.858H41.1V279.458H45.3V280.858ZM52.2945 280.858H50.8945V285.058H52.2945V280.858ZM49.4945 279.458H53.6945V280.858H55.0945V286.458H49.4945V285.058H48.0945V280.858H49.4945V279.458ZM59.2891 279.458H60.6891V280.858H59.2891V285.058H60.6891V286.458H57.8891V285.058H56.4891V276.658H59.2891V279.458ZM67.6945 280.858H69.0945V282.258H66.2945V280.858H64.8945V285.058H66.2945V283.658H69.0945V285.058H67.6945V286.458H63.4945V285.058H62.0945V280.858H63.4945V279.458H67.6945V280.858ZM76.0891 280.858H77.4891V286.458H74.6891V280.858H73.2891V286.458H70.4891V276.658H73.2891V279.458H76.0891V280.858ZM87.2836 279.458H91.4836V280.858H88.6836V286.458H85.8836V280.858H87.2836V279.458ZM92.1863 279.458H94.9863V286.458H92.1863V279.458ZM92.1863 276.658H94.9863V278.058H92.1863V276.658ZM100.584 285.058V280.858H99.1836V285.058H100.584ZM103.384 287.858H101.984V289.258H99.1836V287.858H100.584V286.458H97.7836V285.058H96.3836V280.858H97.7836V279.458H103.384V287.858ZM110.378 280.858H111.778V286.458H108.978V280.858H107.578V286.458H104.778V276.658H107.578V279.458H110.378V280.858ZM115.973 279.458H117.373V280.858H115.973V285.058H117.373V286.458H114.573V285.058H113.173V276.658H115.973V279.458ZM129.978 280.858H128.578V285.058H129.978V280.858ZM131.378 279.458V280.858H132.778V285.058H131.378V286.458H128.578V289.258H125.778V279.458H131.378ZM139.773 280.858H141.173V286.458H138.373V280.858H136.973V286.458H134.173V276.658H136.973V279.458H139.773V280.858ZM146.767 280.858H145.367V285.058H146.767V280.858ZM143.967 279.458H148.167V280.858H149.567V286.458H143.967V285.058H142.567V280.858H143.967V279.458ZM151.662 279.458H155.862V280.858H153.062V282.258H155.862V283.658H157.262V285.058H155.862V286.458H150.262V285.058H154.462V283.658H151.662V282.258H150.262V280.858H151.662V279.458ZM162.162 282.258V280.858H160.762V282.258H162.162ZM163.562 280.858H164.962V283.658H160.762V285.058H164.962V286.458H159.362V285.058H157.962V280.858H159.362V279.458H163.562V280.858ZM166.356 283.658H169.156V286.458H166.356V283.658ZM92.8727 310.658V312.058H90.0727V320.458H87.2727V312.058H84.4727V310.658H92.8727ZM97.7727 319.058V320.458H93.5727V319.058H92.1727V314.858H93.5727V313.458H97.7727V314.858H99.1727V319.058H97.7727ZM94.9727 319.058H96.3727V314.858H94.9727V319.058ZM106.167 319.058V320.458H101.967V319.058H100.567V314.858H101.967V313.458H106.167V314.858H107.567V319.058H106.167ZM103.367 319.058H104.767V314.858H103.367V319.058ZM125.762 313.458V314.858H127.162V320.458H124.362V314.858H122.962V320.458H120.162V314.858H118.762V320.458H115.962V313.458H125.762ZM132.767 313.458H135.567V320.458H129.967V319.058H128.567V313.458H131.367V319.058H132.767V313.458ZM142.562 314.858H143.962V316.258H141.162V314.858H139.762V319.058H141.162V317.658H143.962V319.058H142.562V320.458H138.362V319.058H136.962V314.858H138.362V313.458H142.562V314.858ZM150.956 314.858H152.356V320.458H149.556V314.858H148.156V320.458H145.356V310.658H148.156V313.458H150.956V314.858ZM164.951 319.058V314.858H163.551V319.058H164.951ZM167.751 321.858H166.351V323.258H163.551V321.858H164.951V320.458H162.151V319.058H160.751V314.858H162.151V313.458H167.751V321.858ZM170.545 313.458H174.745V314.858H171.945V320.458H169.145V314.858H170.545V313.458ZM179.648 314.858H178.248V319.058H179.648V314.858ZM176.848 313.458H181.048V314.858H182.448V320.458H176.848V319.058H175.448V314.858H176.848V313.458ZM189.443 314.858H190.843V316.258H188.043V314.858H186.643V319.058H188.043V317.658H190.843V319.058H189.443V320.458H185.243V319.058H183.843V314.858H185.243V313.458H189.443V314.858ZM196.437 316.258V314.858H195.037V316.258H196.437ZM197.837 314.858H199.237V317.658H195.037V319.058H199.237V320.458H193.637V319.058H192.237V314.858H193.637V313.458H197.837V314.858ZM213.232 319.058V320.458H209.032V319.058H207.632V314.858H209.032V313.458H213.232V314.858H214.632V319.058H213.232ZM210.432 319.058H211.832V314.858H210.432V319.058ZM217.426 313.458H221.626V314.858H218.826V320.458H216.026V314.858H217.426V313.458ZM22.9 331.858H21.5V336.058H22.9V331.858ZM24.3 330.458V331.858H25.7V336.058H24.3V337.458H21.5V340.258H18.7V330.458H24.3ZM31.2945 331.858H29.8945V336.058H31.2945V331.858ZM28.4945 330.458H32.6945V331.858H34.0945V337.458H28.4945V336.058H27.0945V331.858H28.4945V330.458ZM39.6891 330.458H42.4891V337.458H36.8891V336.058H35.4891V330.458H38.2891V336.058H39.6891V330.458ZM44.5836 330.458H48.7836V331.858H45.9836V333.258H48.7836V334.658H50.1836V336.058H48.7836V337.458H43.1836V336.058H47.3836V334.658H44.5836V333.258H43.1836V331.858H44.5836V330.458ZM50.8836 330.458H53.6836V337.458H50.8836V330.458ZM50.8836 327.658H53.6836V329.058H50.8836V327.658ZM60.6809 330.458V331.858H62.0809V337.458H59.2809V331.858H57.8809V337.458H55.0809V330.458H60.6809ZM67.6754 336.058V331.858H66.2754V336.058H67.6754ZM70.4754 338.858H69.0754V340.258H66.2754V338.858H67.6754V337.458H64.8754V336.058H63.4754V331.858H64.8754V330.458H70.4754V338.858ZM83.0699 336.058V331.858H81.6699V336.058H83.0699ZM85.8699 338.858H84.4699V340.258H81.6699V338.858H83.0699V337.458H80.2699V336.058H78.8699V331.858H80.2699V330.458H85.8699V338.858ZM91.4645 331.858H90.0645V336.058H91.4645V331.858ZM88.6645 330.458H92.8645V331.858H94.2645V337.458H88.6645V336.058H87.2645V331.858H88.6645V330.458ZM105.459 330.458V331.858H106.859V337.458H104.059V331.858H102.659V337.458H99.859V331.858H98.459V337.458H95.659V330.458H105.459ZM112.464 333.258V331.858H111.064V333.258H112.464ZM113.864 331.858H115.264V334.658H111.064V336.058H115.264V337.458H109.664V336.058H108.264V331.858H109.664V330.458H113.864V331.858ZM122.959 334.658H128.559V336.058H122.959V334.658ZM122.959 331.858H128.559V333.258H122.959V331.858ZM140.464 331.858H139.064V336.058H140.464V331.858ZM141.864 330.458V331.858H143.264V336.058H141.864V337.458H139.064V340.258H136.264V330.458H141.864ZM148.859 333.258V331.858H147.459V333.258H148.859ZM150.259 331.858H151.659V334.658H147.459V336.058H151.659V337.458H146.059V336.058H144.659V331.858H146.059V330.458H150.259V331.858ZM158.654 330.458V331.858H160.054V337.458H157.254V331.858H155.854V337.458H153.054V330.458H158.654ZM165.648 331.858H164.248V336.058H165.648V331.858ZM162.848 330.458H167.048V331.858H168.448V337.458H162.848V336.058H161.448V331.858H162.848V330.458ZM172.643 336.058H174.043V337.458H171.243V336.058H169.843V327.658H172.643V336.058ZM177.537 330.458H178.937V331.858H177.537V336.058H178.937V337.458H176.137V336.058H174.737V327.658H177.537V330.458ZM184.543 330.458H187.343V338.858H185.943V340.258H183.143V338.858H184.543V337.458H181.743V336.058H180.343V330.458H183.143V336.058H184.543V330.458ZM188.737 334.658H191.537V337.458H188.737V334.658ZM71.1699 363.058H72.5699V361.658H76.7699V363.058H78.1699V365.858H76.7699V367.258H78.1699V370.058H76.7699V371.458H72.5699V370.058H71.1699V368.658H73.9699V370.058H75.3699V367.258H73.9699V365.858H75.3699V363.058H73.9699V364.458H71.1699V363.058ZM90.7672 365.858H89.3672V370.058H90.7672V365.858ZM92.1672 364.458V365.858H93.5672V370.058H92.1672V371.458H89.3672V374.258H86.5672V364.458H92.1672ZM99.1617 367.258V365.858H97.7617V367.258H99.1617ZM100.562 365.858H101.962V368.658H97.7617V370.058H101.962V371.458H96.3617V370.058H94.9617V365.858H96.3617V364.458H100.562V365.858ZM104.756 364.458H108.956V365.858H106.156V371.458H103.356V365.858H104.756V364.458ZM112.459 367.258H113.859V368.658H112.459V371.458H109.659V363.058H111.059V361.658H115.259V363.058H112.459V367.258ZM120.162 367.258V365.858H118.762V367.258H120.162ZM121.562 365.858H122.962V368.658H118.762V370.058H122.962V371.458H117.362V370.058H115.962V365.858H117.362V364.458H121.562V365.858ZM129.956 365.858H131.356V367.258H128.556V365.858H127.156V370.058H128.556V368.658H131.356V370.058H129.956V371.458H125.756V370.058H124.356V365.858H125.756V364.458H129.956V365.858ZM135.551 364.458H136.951V365.858H135.551V370.058H136.951V371.458H134.151V370.058H132.751V361.658H135.551V364.458ZM148.156 370.058H149.556V367.258H152.356V370.058H153.756V364.458H156.556V370.058H155.156V371.458H146.756V370.058H145.356V364.458H148.156V370.058ZM162.162 365.858H160.762V370.058H162.162V365.858ZM159.362 364.458H163.562V365.858H164.962V371.458H159.362V370.058H157.962V365.858H159.362V364.458ZM170.556 364.458H173.356V367.258H171.956V368.658H173.356V371.458H170.556V368.658H169.156V371.458H166.356V361.658H169.156V367.258H170.556V364.458ZM178.951 367.258V365.858H177.551V367.258H178.951ZM180.351 365.858H181.751V368.658H177.551V370.058H181.751V371.458H176.151V370.058H174.751V365.858H176.151V364.458H180.351V365.858ZM182.445 367.258H189.445V368.658H182.445V367.258ZM194.345 364.458H197.145V371.458H191.545V370.058H190.145V364.458H192.945V370.058H194.345V364.458ZM202.74 365.858H201.34V370.058H202.74V365.858ZM204.14 364.458V365.858H205.54V370.058H204.14V371.458H201.34V374.258H198.54V364.458H204.14ZM207.634 364.458H211.834V365.858H209.034V367.258H211.834V368.658H213.234V370.058H211.834V371.458H206.234V370.058H210.434V368.658H207.634V367.258H206.234V365.858H207.634V364.458ZM220.234 368.658H225.834V370.058H220.234V368.658ZM220.234 365.858H225.834V367.258H220.234V365.858ZM237.74 367.258V365.858H236.34V367.258H237.74ZM239.14 365.858H240.54V368.658H236.34V370.058H240.54V371.458H234.94V370.058H233.54V365.858H234.94V364.458H239.14V365.858ZM247.534 368.658H248.934V371.458H246.134V368.658H244.734V371.458H241.934V368.658H243.334V367.258H241.934V364.458H244.734V367.258H246.134V364.458H248.934V367.258H247.534V368.658ZM253.129 364.458H254.529V365.858H253.129V370.058H254.529V371.458H251.729V370.058H250.329V361.658H253.129V364.458ZM257.334 364.458H261.534V365.858H258.734V371.458H255.934V365.858H257.334V364.458ZM266.437 365.858H265.037V370.058H266.437V365.858ZM263.637 364.458H267.837V365.858H269.237V371.458H263.637V370.058H262.237V365.858H263.637V364.458ZM21.5 387.058H22.9V388.458H20.1V387.058H18.7V378.658H21.5V387.058ZM23.5945 381.458H26.3945V388.458H23.5945V381.458ZM23.5945 378.658H26.3945V380.058H23.5945V378.658ZM30.5918 384.258H31.9918V385.658H30.5918V388.458H27.7918V380.058H29.1918V378.658H33.3918V380.058H30.5918V384.258ZM38.2945 384.258V382.858H36.8945V384.258H38.2945ZM39.6945 382.858H41.0945V385.658H36.8945V387.058H41.0945V388.458H35.4945V387.058H34.0945V382.858H35.4945V381.458H39.6945V382.858ZM42.4891 385.658H45.2891V388.458H42.4891V385.658ZM132.762 416.858H134.162V414.058H132.762V416.858ZM135.562 421.058V422.458H129.962V412.658H135.562V414.058H136.962V416.858H135.562V418.258H136.962V421.058H135.562ZM132.762 421.058H134.162V418.258H132.762V421.058ZM143.956 421.058V422.458H139.756V421.058H138.356V416.858H139.756V415.458H143.956V416.858H145.356V421.058H143.956ZM141.156 421.058H142.556V416.858H141.156V421.058ZM152.351 415.458V416.858H153.751V422.458H150.951V416.858H149.551V422.458H146.751V415.458H152.351ZM159.345 415.458H162.145V422.458H156.545V421.058H155.145V415.458H157.945V421.058H159.345V415.458ZM164.24 415.458H168.44V416.858H165.64V418.258H168.44V419.658H169.84V421.058H168.44V422.458H162.84V421.058H167.04V419.658H164.24V418.258H162.84V416.858H164.24V415.458ZM181.74 416.858H180.34V421.058H181.74V416.858ZM183.14 415.458V416.858H184.54V421.058H183.14V422.458H180.34V425.258H177.54V415.458H183.14ZM191.534 421.058V422.458H187.334V421.058H185.934V416.858H187.334V415.458H191.534V416.858H192.934V421.058H191.534ZM188.734 421.058H190.134V416.858H188.734V421.058ZM194.329 415.458H197.129V422.458H194.329V415.458ZM194.329 412.658H197.129V414.058H194.329V412.658ZM204.126 415.458V416.858H205.526V422.458H202.726V416.858H201.326V422.458H198.526V415.458H204.126ZM209.721 415.458H211.121V416.858H209.721V421.058H211.121V422.458H208.321V421.058H206.921V412.658H209.721V415.458ZM213.226 415.458H217.426V416.858H214.626V418.258H217.426V419.658H218.826V421.058H217.426V422.458H211.826V421.058H216.026V419.658H213.226V418.258H211.826V416.858H213.226V415.458ZM219.526 419.658H222.326V422.458H219.526V419.658ZM95.6699 455.058H99.8699V456.458H92.8699V446.658H99.8699V448.058H95.6699V450.858H98.4699V452.258H95.6699V455.058ZM104.767 450.858H103.367V455.058H104.767V450.858ZM101.967 449.458H106.167V450.858H107.567V456.458H101.967V455.058H100.567V450.858H101.967V449.458ZM114.562 450.858H115.962V452.258H113.162V450.858H111.762V455.058H113.162V453.658H115.962V455.058H114.562V456.458H110.362V455.058H108.962V450.858H110.362V449.458H114.562V450.858ZM122.956 450.858H124.356V456.458H121.556V450.858H120.156V456.458H117.356V446.658H120.156V449.458H122.956V450.858ZM136.951 450.858H135.551V455.058H136.951V450.858ZM134.151 449.458H136.951V446.658H139.751V456.458H134.151V455.058H132.751V450.858H134.151V449.458ZM145.345 450.858H143.945V455.058H145.345V450.858ZM142.545 449.458H146.745V450.858H148.145V456.458H142.545V455.058H141.145V450.858H142.545V449.458ZM153.74 449.458H156.54V457.858H155.14V459.258H152.34V457.858H153.74V456.458H150.94V455.058H149.54V449.458H152.34V455.058H153.74V449.458ZM164.934 449.458H167.734V456.458H164.934V449.458ZM164.934 446.658H167.734V448.058H164.934V446.658ZM169.832 449.458H174.032V450.858H171.232V452.258H174.032V453.658H175.432V455.058H174.032V456.458H168.432V455.058H172.632V453.658H169.832V452.258H168.432V450.858H169.832V449.458ZM182.432 448.058H183.832V446.658H186.632V456.458H183.832V449.458H182.432V448.058ZM193.626 455.058V456.458H189.426V455.058H188.026V448.058H189.426V446.658H193.626V448.058H195.026V455.058H193.626ZM190.826 455.058H192.226V448.058H190.826V455.058ZM202.021 446.658H204.821V449.458H203.421V452.258H202.021V455.058H200.621V457.858H197.821V455.058H199.221V452.258H200.621V449.458H202.021V446.658ZM196.421 446.658H199.221V449.458H196.421V446.658ZM203.421 455.058H206.221V457.858H203.421V455.058ZM217.418 452.258H218.818V453.658H217.418V456.458H214.618V448.058H216.018V446.658H220.218V448.058H217.418V452.258ZM224.423 450.858H223.023V455.058H224.423V450.858ZM221.623 449.458H225.823V450.858H227.223V456.458H221.623V455.058H220.223V450.858H221.623V449.458ZM229.318 449.458H233.518V450.858H230.718V452.258H233.518V453.658H234.918V455.058H233.518V456.458H227.918V455.058H232.118V453.658H229.318V452.258H227.918V450.858H229.318V449.458ZM238.418 449.458H239.818V450.858H238.418V455.058H239.818V456.458H237.018V455.058H235.618V446.658H238.418V449.458ZM245.423 452.258V450.858H244.023V452.258H245.423ZM246.823 450.858H248.223V453.658H244.023V455.058H248.223V456.458H242.623V455.058H241.223V450.858H242.623V449.458H246.823V450.858ZM251.018 449.458H255.218V450.858H252.418V456.458H249.618V450.858H251.018V449.458ZM254.526 453.658H257.326V456.458H254.526V453.658Z" fill="#00FFE0"/>
<path d="M18 271.46H124.356V271.74H18V271.46Z" fill="#FF6C00"/>
<path d="M18 322.46H73.2809V322.74H18V322.46ZM18 373.46H59.9781V373.74H18V373.46ZM18 458.46H80.9754V458.74H18V458.46Z" fill="#FF6C00"/>
<path d="M84.4727 322.46H199.937V322.74H84.4727V322.46ZM18 339.46H115.964V339.74H18V339.46Z" fill="#00FFE0"/>
<path d="M18 424.46H118.07V424.74H18V424.46Z" fill="#FF6C00"/>
<path d="M65.8 473H68.6V474.4H67.2V475.8H65.8V477.2H67.2V478.6H68.6V480H65.8V478.6H64.4V477.2H63V475.8H64.4V474.4H65.8V473ZM72.1027 473H74.9027V474.4H73.5027V475.8H72.1027V477.2H73.5027V478.6H74.9027V480H72.1027V478.6H70.7027V477.2H69.3027V475.8H70.7027V474.4H72.1027V473ZM84.0055 470.2V471.6H81.2055V480H78.4055V471.6H75.6055V470.2H84.0055ZM88.9 477.2H87.5V480H84.7V471.6H86.1V470.2H90.3V471.6H91.7V480H88.9V477.2ZM87.5 475.8H88.9V471.6H87.5V475.8ZM98.6945 474.4V475.8H95.8945V480H93.0945V470.2H98.6945V471.6H100.095V474.4H98.6945ZM95.8945 474.4H97.2945V471.6H95.8945V474.4ZM111.992 478.6V471.6H110.592V478.6H111.992ZM113.392 471.6H114.792V478.6H113.392V480H109.192V478.6H107.792V471.6H109.192V470.2H113.392V471.6ZM120.386 477.2H118.986V480H116.186V470.2H117.586V471.6H118.986V473H120.386V470.2H123.186V480H121.786V478.6H120.386V477.2ZM160.281 470.2V471.6H157.481V480H154.681V471.6H151.881V470.2H160.281ZM165.175 478.6V471.6H163.775V478.6H165.175ZM166.575 471.6H167.975V478.6H166.575V480H162.375V478.6H160.975V471.6H162.375V470.2H166.575V471.6ZM179.17 478.6H180.57V477.2H183.37V478.6H181.97V480H177.77V478.6H176.37V471.6H177.77V470.2H181.97V471.6H183.37V473H180.57V471.6H179.17V478.6ZM186.867 478.6H191.067V480H184.067V470.2H186.867V478.6ZM195.964 478.6V471.6H194.564V478.6H195.964ZM197.364 471.6H198.764V478.6H197.364V480H193.164V478.6H191.764V471.6H193.164V470.2H197.364V471.6ZM205.759 471.6H207.159V473H204.359V471.6H202.959V474.4H205.759V475.8H207.159V478.6H205.759V480H201.559V478.6H200.159V477.2H202.959V478.6H204.359V475.8H201.559V474.4H200.159V471.6H201.559V470.2H205.759V471.6ZM211.354 478.6H215.554V480H208.554V470.2H215.554V471.6H211.354V474.4H214.154V475.8H211.354V478.6ZM216.251 473H219.051V474.4H220.451V475.8H221.851V477.2H220.451V478.6H219.051V480H216.251V478.6H217.651V477.2H219.051V475.8H217.651V474.4H216.251V473ZM222.554 473H225.354V474.4H226.754V475.8H228.154V477.2H226.754V478.6H225.354V480H222.554V478.6H223.954V477.2H225.354V475.8H223.954V474.4H222.554V473Z" fill="#00FFE0"/>
<g clip-path="url(#clip0_169_189)">
<path d="M142.863 467.314H133.137C131.578 467.314 130.314 468.578 130.314 470.137V479.863C130.314 481.422 131.578 482.686 133.137 482.686H142.863C144.422 482.686 145.686 481.422 145.686 479.863V470.137C145.686 468.578 144.422 467.314 142.863 467.314Z" fill="black" stroke="white" stroke-width="2"/>
<path d="M137.14 476.708V476.613C137.143 476.169 137.184 475.816 137.265 475.554C137.348 475.292 137.466 475.081 137.618 474.922C137.77 474.76 137.955 474.612 138.173 474.477C138.323 474.384 138.456 474.282 138.574 474.172C138.694 474.059 138.788 473.934 138.857 473.797C138.926 473.657 138.96 473.501 138.96 473.33C138.96 473.136 138.915 472.968 138.824 472.826C138.733 472.684 138.611 472.574 138.456 472.495C138.304 472.417 138.134 472.377 137.945 472.377C137.771 472.377 137.606 472.415 137.449 472.491C137.295 472.565 137.166 472.678 137.063 472.83C136.962 472.979 136.906 473.169 136.894 473.399H135.585C135.597 472.934 135.71 472.544 135.923 472.23C136.139 471.917 136.423 471.681 136.776 471.525C137.132 471.368 137.524 471.289 137.953 471.289C138.421 471.289 138.833 471.371 139.188 471.536C139.546 471.7 139.824 471.934 140.022 472.238C140.223 472.539 140.324 472.897 140.324 473.311C140.324 473.591 140.279 473.841 140.188 474.061C140.1 474.282 139.973 474.478 139.809 474.649C139.645 474.821 139.45 474.974 139.225 475.109C139.026 475.232 138.863 475.359 138.736 475.491C138.611 475.624 138.518 475.779 138.456 475.958C138.397 476.135 138.367 476.353 138.364 476.613V476.708H137.14ZM137.78 479.002C137.559 479.002 137.369 478.924 137.21 478.767C137.051 478.61 136.971 478.419 136.971 478.194C136.971 477.973 137.051 477.784 137.21 477.627C137.369 477.471 137.559 477.392 137.78 477.392C137.998 477.392 138.187 477.471 138.346 477.627C138.508 477.784 138.589 477.973 138.589 478.194C138.589 478.343 138.551 478.479 138.475 478.602C138.401 478.724 138.303 478.822 138.181 478.896C138.06 478.967 137.927 479.002 137.78 479.002Z" fill="white"/>
</g>
<defs>
<clipPath id="clip0_169_189">
<rect width="16" height="16" fill="white" transform="translate(130 467)"/>
</clipPath>
</defs>
</svg>
