<svg width="51" height="51" viewBox="0 0 51 51" fill="none" xmlns="http://www.w3.org/2000/svg">
<rect x="0.5" y="0.5" width="50" height="50" rx="9.5" fill="black" stroke="white"/>
<path d="M22.7593 30.9453V30.6406C22.7671 29.2266 22.8999 28.1016 23.1577 27.2656C23.4233 26.4297 23.7983 25.7578 24.2827 25.25C24.7671 24.7344 25.3569 24.2617 26.0522 23.832C26.5288 23.5352 26.9546 23.2109 27.3296 22.8594C27.7124 22.5 28.0132 22.1016 28.2319 21.6641C28.4507 21.2187 28.5601 20.7227 28.5601 20.1758C28.5601 19.5586 28.4155 19.0234 28.1265 18.5703C27.8374 18.1172 27.4468 17.7656 26.9546 17.5156C26.4702 17.2656 25.9272 17.1406 25.3257 17.1406C24.771 17.1406 24.2437 17.2617 23.7437 17.5039C23.2515 17.7383 22.8413 18.0977 22.5132 18.582C22.1929 19.0586 22.0132 19.6641 21.9741 20.3984H17.8022C17.8413 18.9141 18.2007 17.6719 18.8804 16.6719C19.5679 15.6719 20.4741 14.9219 21.5991 14.4219C22.7319 13.9219 23.9819 13.6719 25.3491 13.6719C26.8413 13.6719 28.1538 13.9336 29.2866 14.457C30.4272 14.9805 31.314 15.7266 31.9468 16.6953C32.5874 17.6562 32.9077 18.7969 32.9077 20.1172C32.9077 21.0078 32.7632 21.8047 32.4741 22.5078C32.1929 23.2109 31.7905 23.8359 31.2671 24.3828C30.7437 24.9297 30.1226 25.418 29.4038 25.8477C28.771 26.2383 28.2515 26.6445 27.8452 27.0664C27.4468 27.4883 27.1499 27.9844 26.9546 28.5547C26.7671 29.1172 26.6694 29.8125 26.6616 30.6406V30.9453H22.7593ZM24.7983 38.2578C24.0952 38.2578 23.4897 38.0078 22.9819 37.5078C22.4741 37.0078 22.2202 36.3984 22.2202 35.6797C22.2202 34.9766 22.4741 34.375 22.9819 33.875C23.4897 33.375 24.0952 33.125 24.7983 33.125C25.4937 33.125 26.0952 33.375 26.603 33.875C27.1187 34.375 27.3765 34.9766 27.3765 35.6797C27.3765 36.1562 27.2554 36.5898 27.0132 36.9805C26.7788 37.3711 26.4663 37.6836 26.0757 37.918C25.6929 38.1445 25.2671 38.2578 24.7983 38.2578Z" fill="white"/>
</svg>
