<svg width="47" height="47" viewBox="0 0 47 47" fill="none" xmlns="http://www.w3.org/2000/svg">
<rect x="1" y="1" width="45" height="45" rx="9" fill="black" stroke="#00FFE0" stroke-width="2"/>
<path d="M6.50412 21.1093C6.47738 21.145 6.44958 21.18 6.42474 21.2173C6.40061 21.2532 6.37979 21.2906 6.35778 21.3275C6.33767 21.3612 6.3165 21.3942 6.29793 21.4289C6.27782 21.4665 6.26066 21.5053 6.24256 21.5438C6.22541 21.58 6.20743 21.6156 6.19193 21.6527C6.17656 21.69 6.16402 21.7281 6.15053 21.7659C6.13622 21.8058 6.12096 21.8451 6.10865 21.8858C6.09718 21.9236 6.08878 21.9622 6.0792 22.0004C6.06867 22.0419 6.05708 22.083 6.04868 22.1252C6.03992 22.1695 6.03472 22.2143 6.02821 22.2589C6.02301 22.2957 6.01591 22.3318 6.01224 22.3692C5.99592 22.5348 5.99592 22.7018 6.01224 22.8674C6.01591 22.9046 6.02289 22.9408 6.02821 22.9777C6.0346 23.0223 6.03981 23.0672 6.04868 23.1114C6.05708 23.1538 6.06867 23.1947 6.0792 23.2362C6.08878 23.2745 6.09718 23.313 6.10865 23.3508C6.12096 23.3915 6.13622 23.4309 6.15053 23.4707C6.16413 23.5085 6.17656 23.5466 6.19193 23.5839C6.20731 23.621 6.22541 23.6566 6.24256 23.6928C6.26066 23.7313 6.2777 23.7701 6.29793 23.8077C6.3165 23.8424 6.33767 23.8754 6.35778 23.9091C6.37979 23.946 6.40073 23.9834 6.42474 24.0193C6.4497 24.0566 6.47738 24.0916 6.50412 24.1273C6.52671 24.1575 6.54765 24.1884 6.57166 24.2177C6.62359 24.281 6.67848 24.3419 6.73633 24.3999C6.73716 24.4008 6.73799 24.4018 6.73881 24.4026L16.8333 34.4971C17.8188 35.4826 19.4168 35.4826 20.4023 34.4971C21.3878 33.5116 21.3878 31.9137 20.4023 30.9281L14.6159 25.1417H38.8069C40.2007 25.1417 41.3305 24.0119 41.3305 22.6181C41.3305 21.2244 40.2007 20.0945 38.8069 20.0945H14.6159L20.4023 14.3081C21.3878 13.3226 21.3878 11.7247 20.4023 10.7391C19.4168 9.75362 17.8188 9.75362 16.8333 10.7391L6.73881 20.8336C6.73787 20.8346 6.73716 20.8355 6.73633 20.8364C6.6786 20.8943 6.62371 20.9551 6.57166 21.0185C6.54765 21.0482 6.52671 21.0791 6.50412 21.1093Z" fill="#00FFE0"/>
</svg>
