<svg width="280" height="355" viewBox="0 0 280 355" fill="none" xmlns="http://www.w3.org/2000/svg">
<rect x="0.5" y="0.5" width="279" height="354" rx="9.5" fill="black" fill-opacity="0.58" stroke="#00FFE0"/>
<path d="M14.0117 13V15H10.0117V21H6.01172V7H14.0117V9H16.0117V13H14.0117ZM10.0117 13H12.0117V9H10.0117V13ZM21.0078 19H27.0078V21H17.0078V7H21.0078V19ZM34.0039 17H32.0039V21H28.0039V9H30.0039V7H36.0039V9H38.0039V21H34.0039V17ZM32.0039 15H34.0039V9H32.0039V15ZM46.9961 15V21H42.9961V15H40.9961V13H38.9961V7H42.9961V13H46.9961V7H50.9961V13H48.9961V15H46.9961Z" fill="#00FFE0"/>
</svg>
