<svg width="17" height="17" viewBox="0 0 17 17" fill="none" xmlns="http://www.w3.org/2000/svg">
<g clip-path="url(#clip0_4_232)">
<path fill-rule="evenodd" clip-rule="evenodd" d="M15.2048 2.8099C14.4042 1.99805 13.339 1.55069 12.2041 1.55069H12.2032C11.0683 1.55069 10.0041 1.99806 9.20541 2.80895C8.89179 3.12635 8.63373 3.48423 8.43595 3.87131C8.23911 3.48423 7.98105 3.12635 7.66837 2.8099C6.86876 1.99805 5.80452 1.55069 4.6687 1.55069H4.66775C3.53381 1.55069 2.46863 1.99806 1.66808 2.8099C0.0199144 4.48255 0.0199142 7.20439 1.68221 8.88835L8.43595 15.2258L15.2048 8.87516C16.8529 7.20439 16.8529 4.48255 15.2048 2.8099Z" fill="#FF0000"/>
</g>
<defs>
<clipPath id="clip0_4_232">
<rect width="16.0072" height="16.0072" fill="white" transform="translate(0.433716 0.383514)"/>
</clipPath>
</defs>
</svg>
