<svg width="156" height="42" viewBox="0 0 156 42" fill="none" xmlns="http://www.w3.org/2000/svg">
<rect width="156" height="42" rx="21" fill="#F6D84A"/>
<path d="M53.75 20.8H56.05V13.9H60.65V30H56.05V23.1H53.75V30H49.15V13.9H53.75V20.8ZM69.841 27.7V16.2H67.541V27.7H69.841ZM72.141 16.2H74.441V27.7H72.141V30H65.241V27.7H62.941V16.2H65.241V13.9H72.141V16.2ZM90.532 13.9H92.832V30H88.232V23.1H85.932V25.4H83.632V23.1H81.332V30H76.732V13.9H79.032V16.2H81.332V18.5H83.632V20.8H85.932V18.5H88.232V16.2H90.532V13.9ZM99.7275 27.7H106.628V30H95.1275V13.9H106.628V16.2H99.7275V20.8H104.328V23.1H99.7275V27.7Z" fill="white"/>
</svg>
