<svg width="21" height="21" viewBox="0 0 21 21" fill="none" xmlns="http://www.w3.org/2000/svg">
<g clip-path="url(#clip0_86_183)">
<path d="M0.684797 21C1.063 21 1.36959 20.6934 1.36959 20.3152C1.36959 19.937 1.063 19.6304 0.684797 19.6304C0.306594 19.6304 0 19.937 0 20.3152C0 20.6934 0.306594 21 0.684797 21Z" fill="white"/>
<path d="M3.88046 15.0652C2.74769 15.0652 1.82611 15.9868 1.82611 17.1196C1.82611 18.2523 2.74769 19.1739 3.88046 19.1739C5.01323 19.1739 5.93481 18.2523 5.93481 17.1196C5.93481 15.9868 5.01323 15.0652 3.88046 15.0652ZM3.88046 17.8043C3.50287 17.8043 3.19566 17.4971 3.19566 17.1196C3.19566 16.742 3.50287 16.4348 3.88046 16.4348C4.25805 16.4348 4.56526 16.742 4.56526 17.1196C4.56526 17.4971 4.25805 17.8043 3.88046 17.8043Z" fill="white"/>
<path d="M14.6087 7.0761H13.5228L15.093 5.50594C15.5226 5.07626 15.2184 4.33695 14.6087 4.33695H11.8696C11.4914 4.33695 11.1848 4.64354 11.1848 5.02175C11.1848 5.39991 11.4914 5.70654 11.8696 5.70654H12.9555L11.3853 7.2767C10.9557 7.70638 11.2599 8.44569 11.8696 8.44569H14.6087C14.9869 8.44569 15.2935 8.1391 15.2935 7.76089C15.2935 7.38269 14.9869 7.0761 14.6087 7.0761Z" fill="white"/>
<path d="M9.13044 8.44565H8.04451L9.61463 6.87549C10.0446 6.44565 9.73993 5.7065 9.13044 5.7065H6.3913C6.01313 5.7065 5.7065 6.0131 5.7065 6.3913C5.7065 6.76951 6.01309 7.0761 6.3913 7.0761H7.47723L5.90711 8.64626C5.47718 9.0761 5.7818 9.81524 6.3913 9.81524H9.13044C9.50861 9.81524 9.81524 9.50865 9.81524 9.13045C9.81524 8.75224 9.50861 8.44565 9.13044 8.44565Z" fill="white"/>
<path d="M18.1678 4.20172C17.6937 2.15082 15.5406 0.87634 13.4742 1.54998C12.7988 0.59165 11.6911 0 10.5 0C9.30895 0 8.20116 0.59165 7.52592 1.54998C5.45791 0.875889 3.30586 2.15275 2.83217 4.20172C1.20611 4.57763 0 6.04632 0 7.76085C0 9.47543 1.20611 10.9441 2.83217 11.32C3.30623 13.3704 5.45893 14.6455 7.52583 13.9717C8.20112 14.9301 9.30891 15.5217 10.5 15.5217C11.6911 15.5217 12.7988 14.9301 13.4741 13.9717C15.5417 14.6458 17.694 13.3693 18.1677 11.32C19.7939 10.9441 21 9.47543 21 7.76085C21 6.04632 19.7939 4.57763 18.1678 4.20172ZM17.5177 10.0373C17.1792 10.0622 16.91 10.3313 16.8851 10.6698C16.7646 12.3061 14.9729 13.302 13.515 12.504C13.1657 12.3128 12.7286 12.4593 12.5636 12.8194C12.1925 13.629 11.3825 14.1522 10.5 14.1522C9.61755 14.1522 8.80753 13.629 8.43642 12.8194C8.27117 12.4588 7.83374 12.3131 7.48511 12.5041C6.02876 13.3012 4.23552 12.3076 4.11489 10.6699C4.08995 10.3314 3.82081 10.0622 3.48231 10.0373C2.29757 9.95002 1.36955 8.9501 1.36955 7.76085C1.36955 6.57161 2.29757 5.57169 3.48223 5.48445C3.82073 5.45947 4.08991 5.19036 4.11481 4.85186C4.23531 3.21599 6.02671 2.21956 7.48502 3.01768C7.8337 3.20861 8.27101 3.06305 8.43634 2.70236C8.80749 1.89271 9.61751 1.36955 10.5 1.36955C11.3824 1.36955 12.1924 1.89271 12.5635 2.70231C12.729 3.06346 13.1666 3.20832 13.5149 3.01764C14.9712 2.22054 16.7645 3.21407 16.8851 4.85182C16.91 5.19032 17.1791 5.45951 17.5176 5.4844C18.7024 5.57169 19.6304 6.57161 19.6304 7.76085C19.6304 8.9501 18.7024 9.95002 17.5177 10.0373Z" fill="white"/>
</g>
<defs>
<clipPath id="clip0_86_183">
<rect width="21" height="21" fill="white"/>
</clipPath>
</defs>
</svg>
